<svg width="75" height="42" viewBox="0 0 75 42" fill="none" xmlns="http://www.w3.org/2000/svg">
<path d="M8.26653 1.47827H1.47821V33.6681H8.26653V1.47827Z" fill="#9AD0D2"/>
<path d="M1.47821 33.7775V1.47827H59.6716L62.8468 16.752L73.522 21.4053V34.7082L1.47821 33.7775Z" stroke="black" stroke-width="2.94115" stroke-miterlimit="10" stroke-linecap="round" stroke-linejoin="round"/>
<path d="M19.8718 39.7994C23.1976 39.7994 25.8937 37.1033 25.8937 33.7775C25.8937 30.4517 23.1976 27.7556 19.8718 27.7556C16.546 27.7556 13.8499 30.4517 13.8499 33.7775C13.8499 37.1033 16.546 39.7994 19.8718 39.7994Z" fill="white" stroke="black" stroke-width="2.94115" stroke-miterlimit="10" stroke-linecap="round" stroke-linejoin="round"/>
<path d="M60 39.7994C63.3258 39.7994 66.0219 37.1033 66.0219 33.7775C66.0219 30.4517 63.3258 27.7556 60 27.7556C56.6742 27.7556 53.9781 30.4517 53.9781 33.7775C53.9781 37.1033 56.6742 39.7994 60 39.7994Z" fill="white" stroke="black" stroke-width="2.94115" stroke-miterlimit="10" stroke-linecap="round" stroke-linejoin="round"/>
<path d="M43.3029 1.64258V32.5185" stroke="black" stroke-width="2.94115" stroke-miterlimit="10" stroke-linecap="round" stroke-linejoin="round"/>
</svg>
