<svg width="20" height="20" viewBox="0 0 20 20" fill="none" xmlns="http://www.w3.org/2000/svg">
<circle cx="10" cy="10" r="10" fill="#9AD0D2"/>
<path d="M7.94031 12.6307L14.6179 5.95309L7.94031 12.6307ZM7.94031 12.6307L5.88988 10.5803L5.88991 10.5803L5.88678 10.5773C5.6203 10.3199 5.19566 10.3273 4.9383 10.5938M7.94031 12.6307L14.6329 5.93818C14.8994 5.68093 15.3239 5.68835 15.5813 5.9548C15.8381 6.22071 15.8313 6.64408 15.5665 6.90162L8.41457 14.0536L8.41456 14.0536C8.15262 14.3155 7.72801 14.3155 7.46607 14.0536L7.46604 14.0536L4.94135 11.5289L4.93827 11.5258L4.9383 11.5258C4.68723 11.2658 4.68723 10.8537 4.9383 10.5938M4.9383 10.5938L5.11798 10.7673L4.9383 10.5938C4.9383 10.5938 4.9383 10.5938 4.9383 10.5938Z" fill="white" stroke="white" stroke-width="0.5"/>
</svg>
