<svg width="44" height="53" viewBox="0 0 44 53" fill="none" xmlns="http://www.w3.org/2000/svg">
<path d="M6.28652 24.7144C6.28652 24.7144 5.99593 32.9477 8.22376 37.9845C12.3404 47.138 16.9414 50.7219 16.9414 50.7219L11.9045 50.8188C11.9045 50.8188 4.97887 44.0384 3.38064 37.7424C1.2981 29.6059 2.65418 24.7628 2.65418 24.7628L6.28652 24.7144Z" fill="#9AD0D2"/>
<path d="M25.8522 51.3515C25.8522 51.3515 30.7437 47.3317 33.7949 40.3576C36.9429 33.1413 36.2164 25.0049 36.2164 25.0049H2.07245C2.07245 25.0049 1.34598 33.1413 4.49401 40.3576C7.54517 47.3317 12.4367 51.3515 12.4367 51.3515H25.8522Z" stroke="black" stroke-width="2.23805" stroke-miterlimit="10" stroke-linecap="round" stroke-linejoin="round"/>
<path d="M37.0403 29.9448C39.9461 29.9448 42.2708 32.2695 42.2708 35.1754V38.4203C42.2708 41.3262 39.9461 43.6509 37.0403 43.6509H32.3909" stroke="black" stroke-width="2.23805" stroke-miterlimit="10" stroke-linecap="round" stroke-linejoin="round"/>
<path d="M19.7498 2C19.7498 2 22.8494 3.59823 22.8494 6.5041C22.8494 9.70056 17.4735 10.9113 17.4735 14.4468C17.4735 17.2074 19.7982 18.5635 19.7982 18.5635" stroke="black" stroke-width="2.49828" stroke-miterlimit="10" stroke-linecap="round" stroke-linejoin="round"/>
</svg>
