<svg width="67" height="50" viewBox="0 0 67 50" fill="none" xmlns="http://www.w3.org/2000/svg">
<path d="M30.8641 14.2489L27.515 16.7246L47.4359 43.6735L50.785 41.1978L30.8641 14.2489Z" fill="#9AD0D2"/>
<path d="M65.5663 29.9991L45.559 2.93335L26.983 16.665L46.9903 43.7307L65.5663 29.9991Z" stroke="black" stroke-width="2.47115" stroke-miterlimit="10" stroke-linejoin="round"/>
<path d="M36.3861 9.74902L41.762 17.0137" stroke="black" stroke-width="2.47115" stroke-miterlimit="10"/>
<path d="M50.916 29.4121L56.3886 36.8221" stroke="black" stroke-width="2.47115" stroke-miterlimit="10"/>
<path d="M46.8957 43.6993L20.5007 7.81174C17.837 4.1794 13.575 2 9.07094 2H2" stroke="black" stroke-width="2.47115" stroke-miterlimit="10" stroke-linecap="round" stroke-linejoin="round"/>
<path d="M33.3837 25.5859L32.8026 36.2408L38.5174 44.0382" stroke="black" stroke-width="2.47115" stroke-miterlimit="10" stroke-linejoin="round"/>
<path d="M41.1329 42.4885L44.2325 40.406" stroke="black" stroke-width="2.47115" stroke-miterlimit="10"/>
<path d="M38.8083 47.8161C40.7609 47.8161 42.3437 46.2332 42.3437 44.2806C42.3437 42.328 40.7609 40.7451 38.8083 40.7451C36.8557 40.7451 35.2728 42.328 35.2728 44.2806C35.2728 46.2332 36.8557 47.8161 38.8083 47.8161Z" fill="white" stroke="black" stroke-width="2.47115" stroke-miterlimit="10"/>
</svg>
