<svg width="33" height="26" viewBox="0 0 33 26" fill="none" xmlns="http://www.w3.org/2000/svg">
<path d="M30.9 1.00516C30.7637 0.991118 30.6263 0.991118 30.49 1.00516H2.48996C2.3105 1.00793 2.13224 1.03484 1.95996 1.08516L16.41 15.4752L30.9 1.00516Z" fill="white"/>
<path d="M32.38 2.39502L17.82 16.895C17.4453 17.2675 16.9384 17.4766 16.41 17.4766C15.8816 17.4766 15.3747 17.2675 15 16.895L0.57 2.50502C0.525639 2.66806 0.502119 2.83607 0.5 3.00502V23.005C0.5 23.5355 0.710714 24.0442 1.08579 24.4192C1.46086 24.7943 1.96957 25.005 2.5 25.005H30.5C31.0304 25.005 31.5391 24.7943 31.9142 24.4192C32.2893 24.0442 32.5 23.5355 32.5 23.005V3.00502C32.492 2.79667 32.4516 2.59085 32.38 2.39502Z" fill="white"/>
</svg>
