<svg width="32" height="32" viewBox="0 0 32 32" fill="none" xmlns="http://www.w3.org/2000/svg">
<path d="M16 3.30121C20.1084 3.30121 20.6687 3.30121 22.3494 3.30121C23.8434 3.30121 24.5904 3.6747 25.1506 3.86145C25.8976 4.23494 26.4578 4.42169 27.0181 4.98193C27.5783 5.54217 27.9518 6.10241 28.1386 6.8494C28.3253 7.40964 28.512 8.15663 28.6988 9.6506C28.6988 11.3313 28.6988 11.7048 28.6988 16C28.6988 20.2952 28.6988 20.6687 28.6988 22.3494C28.6988 23.8434 28.3253 24.5904 28.1386 25.1506C27.7651 25.8976 27.5783 26.4578 27.0181 27.0181C26.4578 27.5783 25.8976 27.9518 25.1506 28.1386C24.5904 28.3253 23.8434 28.512 22.3494 28.6988C20.6687 28.6988 20.2952 28.6988 16 28.6988C11.7048 28.6988 11.3313 28.6988 9.6506 28.6988C8.15663 28.6988 7.40964 28.3253 6.8494 28.1386C6.10241 27.7651 5.54217 27.5783 4.98193 27.0181C4.42169 26.4578 4.04819 25.8976 3.86145 25.1506C3.6747 24.5904 3.48795 23.8434 3.30121 22.3494C3.30121 20.6687 3.30121 20.2952 3.30121 16C3.30121 11.7048 3.30121 11.3313 3.30121 9.6506C3.30121 8.15663 3.6747 7.40964 3.86145 6.8494C4.23494 6.10241 4.42169 5.54217 4.98193 4.98193C5.54217 4.42169 6.10241 4.04819 6.8494 3.86145C7.40964 3.6747 8.15663 3.48795 9.6506 3.30121C11.3313 3.30121 11.8916 3.30121 16 3.30121ZM16 0.5C11.7048 0.5 11.3313 0.5 9.6506 0.5C7.96988 0.5 6.8494 0.873495 5.91566 1.24699C4.98193 1.62048 4.04819 2.18072 3.11446 3.11446C2.18072 4.04819 1.80723 4.79518 1.24699 5.91566C0.873495 6.8494 0.686747 7.96988 0.5 9.6506C0.5 11.3313 0.5 11.8916 0.5 16C0.5 20.2952 0.5 20.6687 0.5 22.3494C0.5 24.0301 0.873495 25.1506 1.24699 26.0843C1.62048 27.0181 2.18072 27.9518 3.11446 28.8855C4.04819 29.8193 4.79518 30.1928 5.91566 30.753C6.8494 31.1265 7.96988 31.3133 9.6506 31.5C11.3313 31.5 11.8916 31.5 16 31.5C20.1084 31.5 20.6687 31.5 22.3494 31.5C24.0301 31.5 25.1506 31.1265 26.0843 30.753C27.0181 30.3795 27.9518 29.8193 28.8855 28.8855C29.8193 27.9518 30.1928 27.2048 30.753 26.0843C31.1265 25.1506 31.3133 24.0301 31.5 22.3494C31.5 20.6687 31.5 20.1084 31.5 16C31.5 11.8916 31.5 11.3313 31.5 9.6506C31.5 7.96988 31.1265 6.8494 30.753 5.91566C30.3795 4.98193 29.8193 4.04819 28.8855 3.11446C27.9518 2.18072 27.2048 1.80723 26.0843 1.24699C25.1506 0.873495 24.0301 0.686747 22.3494 0.5C20.6687 0.5 20.2952 0.5 16 0.5Z" fill="white"/>
<path d="M16 7.96988C11.5181 7.96988 7.96988 11.5181 7.96988 16C7.96988 20.4819 11.5181 24.0301 16 24.0301C20.4819 24.0301 24.0301 20.4819 24.0301 16C24.0301 11.5181 20.4819 7.96988 16 7.96988ZM16 21.2289C13.1988 21.2289 10.7711 18.988 10.7711 16C10.7711 13.1988 13.012 10.7711 16 10.7711C18.8012 10.7711 21.2289 13.012 21.2289 16C21.2289 18.8012 18.8012 21.2289 16 21.2289Z" fill="white"/>
<path d="M24.2169 9.6506C25.2482 9.6506 26.0843 8.81451 26.0843 7.78313C26.0843 6.75176 25.2482 5.91566 24.2169 5.91566C23.1855 5.91566 22.3494 6.75176 22.3494 7.78313C22.3494 8.81451 23.1855 9.6506 24.2169 9.6506Z" fill="white"/>
</svg>
