<svg width="31" height="30" viewBox="0 0 31 30" fill="none" xmlns="http://www.w3.org/2000/svg">
<path d="M7.25001 30H0.874994V9.9375H7.25001V30ZM4.0625 7.125C2 7.125 0.5 5.625 0.5 3.5625C0.5 1.5 2.1875 0 4.0625 0C6.125 0 7.62501 1.5 7.62501 3.5625C7.62501 5.625 6.125 7.125 4.0625 7.125ZM30.5 30H24.125V19.125C24.125 15.9375 22.8125 15 20.9375 15C19.0625 15 17.1875 16.5 17.1875 19.3125V30H10.8125V9.9375H16.8125V12.75C17.375 11.4375 19.625 9.375 22.8125 9.375C26.375 9.375 30.125 11.4375 30.125 17.625V30H30.5Z" fill="white"/>
</svg>
