<svg width="160" height="33" viewBox="0 0 160 33" fill="none" xmlns="http://www.w3.org/2000/svg">
<path d="M18.6982 25.9047C18.6984 26.442 18.6423 26.9777 18.5309 27.5033C17.8099 30.8567 14.758 32.8514 10.2139 32.9885C10.0408 32.9935 9.86764 32.9976 9.68949 32.9976C4.11417 32.996 0 29.7696 0 25.4167H5.33529C5.33529 27.3713 7.24475 28.7409 9.98808 28.7409C11.9954 28.7409 13.2684 27.6654 13.2684 26.0526C13.2684 24.7808 12.7306 23.9995 10.2825 23.3636L5.72838 22.1385C2.55013 21.2594 0.73518 18.9589 0.73518 15.7325C0.73518 11.8693 4.40857 9.03149 9.49629 9.03149C15.08 9.03149 18.5058 11.7248 18.5058 16.1252H13.2684C13.2684 14.2166 11.7989 13.0902 9.30476 13.0902C7.3953 13.0902 6.02196 14.0721 6.02196 15.4375C6.02196 16.6626 6.7563 17.4949 8.85813 18.0798L13.4122 19.3984C16.644 20.3285 18.6982 22.6758 18.6982 25.9047Z" fill="white"/>
<path d="M73.3884 0V9.2121H78.62V13.6594H73.3884V23.4506C73.3884 27.4065 74.6104 27.8979 76.7114 27.8979C77.5477 27.8979 78.8642 27.7993 79.4028 27.7015V32.3919C78.5665 32.5365 77.0066 32.6861 75.4434 32.6861C72.8506 32.6861 68.0573 32.3401 68.0573 24.6715V13.6594H64.1915V9.2121H68.0573V0" fill="white"/>
<path d="M159.893 9.43185L153.607 9.46194L148.74 16.4237L143.802 9.5079L137.521 9.53714L145.62 20.886L137.628 32.305L143.91 32.2758L148.782 25.3132L153.715 32.2298L160 32.1997L151.901 20.8559L159.893 9.43185Z" fill="white"/>
<path d="M96.9316 9.213C94.6305 9.20872 92.3821 9.90063 90.4822 11.1976C88.8901 12.2934 87.5884 13.7592 86.6892 15.4691C85.7899 17.179 85.3201 19.0815 85.3201 21.0131C85.3201 22.9446 85.7899 24.8472 86.6892 26.5571C87.5884 28.2669 88.8901 29.7328 90.4822 30.8285C92.3829 32.1242 94.6306 32.8168 96.9316 32.8157C103.353 32.8157 108.548 27.5311 108.548 21.0131C108.548 14.4951 103.353 9.213 96.9316 9.213ZM96.9316 28.1093C93.9925 28.1093 91.4742 26.2108 90.4822 23.5409C89.8834 21.9105 89.8834 20.1207 90.4822 18.4903C91.4742 15.8162 93.9875 13.9168 96.9316 13.9168C100.741 13.9168 103.835 17.1014 103.835 21.0198C103.835 24.9381 100.741 28.1093 96.9316 28.1093Z" fill="white"/>
<path d="M90.4808 0V18.4894C89.8819 20.1198 89.8819 21.9096 90.4808 23.54V32.3919H85.3186V0" fill="white"/>
<path d="M41.9865 11.9571L41.9773 11.9479C39.9031 10.1758 37.2626 9.20384 34.5335 9.20781C28.1151 9.20781 22.917 14.4865 22.917 21.0104C22.9142 22.0963 23.0623 23.1773 23.3569 24.2226C24.7277 29.1796 29.2116 32.813 34.5284 32.813C36.7838 32.8162 38.9894 32.1505 40.8657 30.9002C42.3922 29.8762 43.6612 28.5136 44.5737 26.9188C45.4861 25.324 46.0173 23.54 46.1258 21.7062C46.2343 19.8724 45.9172 18.0383 45.1991 16.3472C44.4811 14.6561 43.3816 13.1536 41.9865 11.9571ZM40.864 23.8298C39.8018 26.3451 37.3629 28.1083 34.5268 28.1083C30.8467 28.1083 27.8357 25.1343 27.6375 21.3981C27.6325 21.2669 27.6283 21.1408 27.6283 21.0104C27.6283 17.1004 30.7229 13.9166 34.5268 13.9166C35.6519 13.9145 36.7594 14.1959 37.7468 14.7347C39.147 15.5037 40.2456 16.7233 40.864 18.1951C41.2378 19.0875 41.4302 20.0452 41.4302 21.0125C41.4302 21.9798 41.2378 22.9375 40.864 23.8298Z" fill="white"/>
<path d="M46.1441 9.20111V32.3901H40.8648V23.8332C41.2386 22.9408 41.4311 21.9831 41.4311 21.0158C41.4311 20.0485 41.2386 19.0908 40.8648 18.1985V9.21281L46.1441 9.20111Z" fill="white"/>
<path d="M59.4041 0V32.3919H54.073V0" fill="white"/>
<path d="M135.722 20.932C135.729 24.0597 134.499 27.0636 132.298 29.2884L120.122 21.0105C119.864 20.8321 119.557 20.7373 119.242 20.7391C118.928 20.7409 118.622 20.8392 118.366 21.0205L113.06 24.7149C112.65 23.4964 112.442 22.2192 112.444 20.9336C112.444 14.4156 117.655 9.1394 124.082 9.1394C130.51 9.1394 135.722 14.4173 135.722 20.932Z" fill="white"/>
</svg>
