<svg width="46" height="38" viewBox="0 0 46 38" fill="none" xmlns="http://www.w3.org/2000/svg">
<path d="M34.4971 27.2329C30.9617 30.7683 25.2468 30.7683 21.7113 27.2329C18.1758 23.6974 18.1758 17.9825 21.7113 14.447" fill="#9AD0D2"/>
<path d="M44.6679 35.9018H14.2047C7.47273 35.9018 2 30.4291 2 23.6972V6.35881H15.4154L18.515 2H33.9646L36.483 6.35881H44.6679V35.9018Z" stroke="black" stroke-width="2.34688" stroke-miterlimit="10" stroke-linejoin="round"/>
<path d="M28.1043 29.8965C33.1062 29.8965 37.161 25.8417 37.161 20.8398C37.161 15.838 33.1062 11.7832 28.1043 11.7832C23.1025 11.7832 19.0477 15.838 19.0477 20.8398C19.0477 25.8417 23.1025 29.8965 28.1043 29.8965Z" stroke="black" stroke-width="2.34688" stroke-miterlimit="10"/>
<path d="M10.5239 17.0136C12.1288 17.0136 13.4298 15.7126 13.4298 14.1078C13.4298 12.5029 12.1288 11.2019 10.5239 11.2019C8.91905 11.2019 7.61804 12.5029 7.61804 14.1078C7.61804 15.7126 8.91905 17.0136 10.5239 17.0136Z" stroke="black" stroke-width="2.34688" stroke-miterlimit="10"/>
</svg>
