<svg width="23" height="16" viewBox="0 0 23 16" fill="none" xmlns="http://www.w3.org/2000/svg">
<path d="M5.99094 15.82C8.45094 15.82 10.5509 14.32 10.5509 11.86C10.5509 9.40001 8.99093 7.90001 6.95094 7.90001C6.17094 7.90001 5.51094 8.20001 5.21094 8.44001C5.15094 6.04001 6.77094 3.76001 10.6109 2.02001L10.1909 0.700011C4.01094 2.02001 0.770937 5.44001 0.770937 10.3C0.770937 13.96 3.35094 15.82 5.99094 15.82ZM18.1109 15.82C20.5709 15.82 22.6709 14.32 22.6709 11.86C22.6709 9.40001 21.1109 7.90001 19.0709 7.90001C18.2909 7.90001 17.6309 8.20001 17.3309 8.44001C17.2709 6.04001 18.8909 3.76001 22.7309 2.02001L22.3109 0.700011C16.1309 2.02001 12.8909 5.44001 12.8909 10.3C12.8909 13.96 15.4709 15.82 18.1109 15.82Z" fill="#FDB706"/>
</svg>
