<svg width="23" height="16" viewBox="0 0 23 16" fill="none" xmlns="http://www.w3.org/2000/svg">
<path d="M17.5091 0.179991C15.0491 0.179991 12.9491 1.67999 12.9491 4.13999C12.9491 6.59999 14.5091 8.09999 16.5491 8.09999C17.3291 8.09999 17.9891 7.79999 18.2891 7.55999C18.3491 9.95999 16.7291 12.24 12.8891 13.98L13.3091 15.3C19.4891 13.98 22.7291 10.56 22.7291 5.69999C22.7291 2.03999 20.1491 0.179991 17.5091 0.179991ZM5.38907 0.17999C2.92907 0.17999 0.829069 1.67999 0.829069 4.13999C0.829069 6.59999 2.38907 8.09999 4.42907 8.09999C5.20907 8.09999 5.86907 7.79999 6.16907 7.55999C6.22907 9.95999 4.60907 12.24 0.769069 13.98L1.18907 15.3C7.36907 13.98 10.6091 10.56 10.6091 5.69999C10.6091 2.03999 8.02907 0.17999 5.38907 0.17999Z" fill="#FDB706"/>
</svg>
