<svg width="35" height="51" viewBox="0 0 35 51" fill="none" xmlns="http://www.w3.org/2000/svg">
<path d="M11.4925 49.5109H23.9878C29.2184 49.5109 33.4803 45.249 33.4803 40.0184V18.6118H2V39.97C2 45.249 6.26193 49.5109 11.4925 49.5109Z" stroke="black" stroke-width="2.47115" stroke-miterlimit="10" stroke-linejoin="round"/>
<path d="M6.16473 19.629V13.7688C6.16473 7.279 11.4438 2 17.9335 2C24.4233 2 29.7023 7.279 29.7023 13.7688V19.2415" stroke="black" stroke-width="2.47115" stroke-miterlimit="10" stroke-linejoin="round"/>
<path d="M18.0789 36.9673C19.6838 36.9673 20.9848 35.6663 20.9848 34.0614C20.9848 32.4565 19.6838 31.1555 18.0789 31.1555C16.474 31.1555 15.173 32.4565 15.173 34.0614C15.173 35.6663 16.474 36.9673 18.0789 36.9673Z" stroke="black" stroke-width="2.47115" stroke-miterlimit="10" stroke-linejoin="round"/>
</svg>
