<svg width="137" height="21" viewBox="0 0 137 21" fill="none" xmlns="http://www.w3.org/2000/svg">
<path d="M20.3213 7.39421L14.0259 6.43612L11.2117 0.461689C11.1348 0.298113 11.0083 0.165694 10.8521 0.0852042C10.4604 -0.117319 9.98432 0.0514503 9.78844 0.461689L6.97423 6.43612L0.678842 7.39421C0.505279 7.42017 0.346592 7.50586 0.225098 7.63568C0.0782178 7.79377 -0.00271976 8.00645 6.97872e-05 8.227C0.00285933 8.44755 0.0891477 8.65791 0.239975 8.81187L4.79477 13.4621L3.71868 20.0285C3.69345 20.1813 3.70959 20.3384 3.76528 20.482C3.82096 20.6256 3.91397 20.7501 4.03374 20.8412C4.15352 20.9323 4.29528 20.9864 4.44294 20.9974C4.59059 21.0084 4.73825 20.9759 4.86916 20.9035L10.5001 17.8034L16.1309 20.9035C16.2847 20.9892 16.4632 21.0178 16.6343 20.9866C17.0657 20.9087 17.3558 20.4803 17.2814 20.0285L16.2053 13.4621L20.7601 8.81187C20.8841 8.68465 20.9659 8.51847 20.9907 8.33672C21.0577 7.88234 20.7552 7.46172 20.3213 7.39421Z" fill="#FDB706"/>
<path d="M49.3213 7.39421L43.0259 6.43612L40.2117 0.461689C40.1348 0.298113 40.0083 0.165694 39.8521 0.0852042C39.4604 -0.117319 38.9843 0.0514503 38.7884 0.461689L35.9742 6.43612L29.6788 7.39421C29.5053 7.42017 29.3466 7.50586 29.2251 7.63568C29.0782 7.79377 28.9973 8.00645 29.0001 8.227C29.0029 8.44755 29.0891 8.65791 29.24 8.81187L33.7948 13.4621L32.7187 20.0285C32.6934 20.1813 32.7096 20.3384 32.7653 20.482C32.821 20.6256 32.914 20.7501 33.0337 20.8412C33.1535 20.9323 33.2953 20.9864 33.4429 20.9974C33.5906 21.0084 33.7383 20.9759 33.8692 20.9035L39.5001 17.8034L45.1309 20.9035C45.2847 20.9892 45.4632 21.0178 45.6343 20.9866C46.0657 20.9087 46.3558 20.4803 46.2814 20.0285L45.2053 13.4621L49.7601 8.81187C49.8841 8.68465 49.9659 8.51847 49.9907 8.33672C50.0577 7.88234 49.7552 7.46172 49.3213 7.39421Z" fill="#FDB706"/>
<path d="M78.3213 7.39421L72.0259 6.43612L69.2117 0.461689C69.1348 0.298113 69.0083 0.165694 68.8521 0.0852042C68.4604 -0.117319 67.9843 0.0514503 67.7884 0.461689L64.9742 6.43612L58.6788 7.39421C58.5053 7.42017 58.3466 7.50586 58.2251 7.63568C58.0782 7.79377 57.9973 8.00645 58.0001 8.227C58.0029 8.44755 58.0891 8.65791 58.24 8.81187L62.7948 13.4621L61.7187 20.0285C61.6934 20.1813 61.7096 20.3384 61.7653 20.482C61.821 20.6256 61.914 20.7501 62.0337 20.8412C62.1535 20.9323 62.2953 20.9864 62.4429 20.9974C62.5906 21.0084 62.7383 20.9759 62.8692 20.9035L68.5001 17.8034L74.1309 20.9035C74.2847 20.9892 74.4632 21.0178 74.6343 20.9866C75.0657 20.9087 75.3558 20.4803 75.2814 20.0285L74.2053 13.4621L78.7601 8.81187C78.8841 8.68465 78.9659 8.51847 78.9907 8.33672C79.0577 7.88234 78.7552 7.46172 78.3213 7.39421Z" fill="#FDB706"/>
<path d="M107.321 7.39421L101.026 6.43612L98.2117 0.461689C98.1348 0.298113 98.0083 0.165694 97.8521 0.0852042C97.4604 -0.117319 96.9843 0.0514503 96.7884 0.461689L93.9742 6.43612L87.6788 7.39421C87.5053 7.42017 87.3466 7.50586 87.2251 7.63568C87.0782 7.79377 86.9973 8.00645 87.0001 8.227C87.0029 8.44755 87.0891 8.65791 87.24 8.81187L91.7948 13.4621L90.7187 20.0285C90.6934 20.1813 90.7096 20.3384 90.7653 20.482C90.821 20.6256 90.914 20.7501 91.0337 20.8412C91.1535 20.9323 91.2953 20.9864 91.4429 20.9974C91.5906 21.0084 91.7383 20.9759 91.8692 20.9035L97.5001 17.8034L103.131 20.9035C103.285 20.9892 103.463 21.0178 103.634 20.9866C104.066 20.9087 104.356 20.4803 104.281 20.0285L103.205 13.4621L107.76 8.81187C107.884 8.68465 107.966 8.51847 107.991 8.33672C108.058 7.88234 107.755 7.46172 107.321 7.39421Z" fill="#FDB706"/>
<path d="M136.321 7.39421L130.026 6.43612L127.212 0.461689C127.135 0.298113 127.008 0.165694 126.852 0.0852042C126.46 -0.117319 125.984 0.0514503 125.788 0.461689L122.974 6.43612L116.679 7.39421C116.505 7.42017 116.347 7.50586 116.225 7.63568C116.078 7.79377 115.997 8.00645 116 8.227C116.003 8.44755 116.089 8.65791 116.24 8.81187L120.795 13.4621L119.719 20.0285C119.693 20.1813 119.71 20.3384 119.765 20.482C119.821 20.6256 119.914 20.7501 120.034 20.8412C120.154 20.9323 120.295 20.9864 120.443 20.9974C120.591 21.0084 120.738 20.9759 120.869 20.9035L126.5 17.8034L132.131 20.9035C132.285 20.9892 132.463 21.0178 132.634 20.9866C133.066 20.9087 133.356 20.4803 133.281 20.0285L132.205 13.4621L136.76 8.81187C136.884 8.68465 136.966 8.51847 136.991 8.33672C137.058 7.88234 136.755 7.46172 136.321 7.39421Z" fill="#FDB706"/>
</svg>
