<svg width="49" height="42" viewBox="0 0 49 42" fill="none" xmlns="http://www.w3.org/2000/svg">
<path d="M25.5371 25.2954H19.0958V40.0185H25.5371V25.2954Z" fill="#9AD0D2"/>
<path d="M12.4115 25.2954H8.82756V40.0185H12.4115V25.2954Z" fill="#9AD0D2"/>
<path d="M25.0528 22.0506C26.8449 22.0506 28.2977 20.5978 28.2977 18.8057C28.2977 17.0136 26.8449 15.5608 25.0528 15.5608C23.2607 15.5608 21.808 17.0136 21.808 18.8057C21.808 20.5978 23.2607 22.0506 25.0528 22.0506Z" stroke="black" stroke-width="2.47115" stroke-miterlimit="10" stroke-linejoin="round"/>
<path d="M18.9023 39.9217V28.8794C18.9023 26.8453 20.549 25.2471 22.5347 25.2471H28.0074C30.0415 25.2471 31.6397 26.8937 31.6397 28.8794V39.9217" stroke="black" stroke-width="2.47115" stroke-miterlimit="10" stroke-linecap="round" stroke-linejoin="round"/>
<path d="M13.8657 22.0506C15.6578 22.0506 17.1106 20.5978 17.1106 18.8057C17.1106 17.0136 15.6578 15.5608 13.8657 15.5608C12.0736 15.5608 10.6209 17.0136 10.6209 18.8057C10.6209 20.5978 12.0736 22.0506 13.8657 22.0506Z" stroke="black" stroke-width="2.47115" stroke-miterlimit="10" stroke-linejoin="round"/>
<path d="M15.8996 25.2471H11.8799C9.84574 25.2471 8.24751 26.8937 8.24751 28.8794V39.9217H41.8103V28.8794C41.8103 26.8453 40.1636 25.2471 38.178 25.2471H34.4004" stroke="black" stroke-width="2.47115" stroke-miterlimit="10" stroke-linecap="round" stroke-linejoin="round"/>
<path d="M36.0951 22.0506C37.8872 22.0506 39.34 20.5978 39.34 18.8057C39.34 17.0136 37.8872 15.5608 36.0951 15.5608C34.303 15.5608 32.8502 17.0136 32.8502 18.8057C32.8502 20.5978 34.303 22.0506 36.0951 22.0506Z" stroke="black" stroke-width="2.47115" stroke-miterlimit="10" stroke-linejoin="round"/>
<path d="M8.10232 31.7368H4.1794C2.96862 31.7368 2 30.7681 2 29.5574V4.1794C2 2.96862 2.96862 2 4.1794 2H45.5397C46.7504 2 47.7191 2.96862 47.7191 4.1794V29.5574C47.7191 30.7681 46.7504 31.7368 45.5397 31.7368H41.8104" stroke="black" stroke-width="2.32155" stroke-miterlimit="10" stroke-linecap="round" stroke-linejoin="round"/>
</svg>
