<svg width="31" height="24" viewBox="0 0 31 24" fill="none" xmlns="http://www.w3.org/2000/svg">
<path d="M30.5 2.76923C29.375 3.32308 28.25 3.50769 26.9375 3.69231C28.25 2.95385 29.1875 1.84615 29.5625 0.36923C28.4375 1.10769 27.125 1.47692 25.625 1.84615C24.5 0.738461 22.8125 0 21.125 0C17.1875 0 14.1875 3.69231 15.125 7.38462C10.0625 7.2 5.5625 4.8 2.375 1.10769C0.6875 3.87692 1.625 7.38462 4.25 9.23077C3.3125 9.23077 2.375 8.86154 1.4375 8.49231C1.4375 11.2615 3.5 13.8462 6.3125 14.5846C5.375 14.7692 4.4375 14.9538 3.5 14.7692C4.25 17.1692 6.5 19.0154 9.3125 19.0154C7.0625 20.6769 3.6875 21.6 0.5 21.2308C3.3125 22.8923 6.5 24 9.875 24C21.3125 24 27.6875 14.5846 27.3125 5.90769C28.625 5.16923 29.75 4.06154 30.5 2.76923Z" fill="white"/>
</svg>
