<svg width="215" height="9" viewBox="0 0 215 9" fill="none" xmlns="http://www.w3.org/2000/svg">
<path d="M55.4778 3.00781C55.538 2.78996 55.73 2.65576 55.8609 2.69613C56.1867 2.73215 56.1169 2.5172 56.2459 2.47102C56.3777 2.55467 56.5096 2.63832 56.6415 2.72197C56.7724 2.76234 56.9683 2.80126 57.0323 2.75653C57.2892 2.62088 57.4201 2.66125 57.425 2.87764C57.4259 2.92092 57.6208 2.91656 57.6868 2.95839C57.6858 2.91511 57.6848 2.87183 57.6839 2.82855L57.6179 2.78673C57.5501 2.65834 57.4812 2.48668 57.5452 2.44195C57.9321 2.30339 57.809 2.60925 57.9408 2.6929C58.0068 2.73472 58.0737 2.81983 58.1396 2.86166C58.2056 2.90348 58.2696 2.85875 58.3355 2.90057C58.3345 2.8573 58.3336 2.81402 58.3326 2.77074C58.3307 2.68418 58.2628 2.55579 58.3278 2.55434C58.5207 2.46342 58.5876 2.54853 58.7195 2.63218C58.8514 2.71583 58.9871 2.9726 59.1093 2.62346C59.6931 2.5671 60.2739 2.3809 60.8654 2.67077C61.0622 2.75297 61.0642 2.83953 61.1893 2.62022C61.3153 2.4442 61.7711 2.4773 61.9718 2.73262C61.9718 2.73262 61.9718 2.73262 61.9708 2.68934C61.9059 2.69079 61.8409 2.69224 61.8419 2.73552C61.8419 2.73552 61.8428 2.7788 61.8438 2.82208C61.9088 2.82063 61.9078 2.77735 61.9718 2.73262C62.1619 2.51186 62.2908 2.46567 62.4188 2.37621C62.6758 2.24056 62.6147 2.41513 62.6807 2.45695C62.7476 2.54206 62.9425 2.5377 63.0734 2.57807C63.0103 2.66608 62.9473 2.75409 62.8833 2.79883C63.0132 2.79592 63.0782 2.79447 63.2082 2.79156C63.3381 2.78865 63.532 2.74101 63.7269 2.73665C63.6629 2.78138 63.5989 2.82612 63.5359 2.91413C63.5359 2.91413 63.6038 3.04251 63.6028 2.99923C63.7327 2.99633 63.8617 2.95014 64.0566 2.94578C63.9897 2.86067 63.8588 2.8203 63.7269 2.73665C63.5912 2.47988 63.3953 2.44096 63.0734 2.57807C63.1936 2.14237 63.1917 2.05581 63.7153 2.2173C64.0431 2.33987 64.494 2.15658 64.8237 2.36571C64.8896 2.40753 65.0835 2.35989 65.2135 2.35699C65.5354 2.21988 65.8612 2.25589 66.059 2.38137C66.125 2.42319 66.2549 2.42029 66.3848 2.41738C66.3848 2.41738 66.3829 2.33082 66.4469 2.28609C66.5749 2.19662 66.7679 2.1057 66.8328 2.10425C67.0287 2.14317 67.0966 2.27155 66.8396 2.40721C66.7756 2.45194 67.2352 2.65816 67.4282 2.56724C67.6212 2.47632 67.8132 2.34212 68.075 2.42287C68.075 2.42287 68.075 2.42287 68.01 2.42432C68.011 2.4676 68.012 2.51088 68.0769 2.50943C68.0769 2.50943 68.1419 2.50797 68.2069 2.50652C68.2059 2.46324 68.1409 2.46469 68.075 2.42287C68.0052 2.20792 68.1972 2.07373 68.3921 2.06937C68.8469 2.05919 69.3647 1.961 69.6973 2.29997C69.8311 2.47018 70.1492 2.15996 70.2849 2.41673C70.5399 2.19452 70.8017 2.27526 71.0626 2.31272C71.2575 2.30836 71.3836 2.13234 71.6473 2.29964C71.7792 2.38329 72.0323 2.07453 72.232 2.28656C72.233 2.32984 72.298 2.32839 72.3629 2.32693C72.8167 2.27348 73.5954 2.21276 74.0531 2.33242C74.3149 2.41316 74.4458 2.45354 74.7018 2.27461C74.7658 2.22987 75.0897 2.17933 75.1556 2.22115C75.4853 2.43028 75.7413 2.25135 75.9343 2.16043C76.3202 1.97859 76.3192 1.93531 76.584 2.14589C76.7827 2.31465 76.9796 2.39685 77.3015 2.25974C77.5672 2.5136 77.7582 2.33613 77.9512 2.24521C77.9512 2.24521 78.9878 2.09211 79.0537 2.13394C79.1856 2.21759 79.3165 2.25796 79.5095 2.16704C79.5735 2.12231 79.7684 2.11795 79.8334 2.1165C80.0961 2.24052 80.2949 2.40928 80.7468 2.26926C81.0707 2.21872 81.3974 2.29801 81.7873 2.28929C81.8522 2.28783 81.9162 2.2431 81.9812 2.24165C82.2401 2.19255 82.1693 1.93433 82.4932 1.88378C82.7531 1.87797 82.8888 2.13474 83.1448 1.95581C83.2088 1.91107 83.3397 1.95145 83.4057 1.99327C83.6016 2.03219 83.6093 2.37842 83.9943 2.15331C84.1232 2.10712 84.452 2.27297 84.7128 2.31043C85.1705 2.4301 85.6873 2.28863 86.0752 2.19335C86.4631 2.09807 86.7249 2.17882 87.0488 2.12827C87.1137 2.12682 87.1147 2.17009 87.1806 2.21192C87.1157 2.21337 87.0517 2.25811 86.9867 2.25956C86.9217 2.26101 86.8568 2.26247 86.7918 2.26392C86.7268 2.26537 86.6619 2.26683 86.5969 2.26828C86.6628 2.31011 86.6638 2.35339 86.7297 2.39521C86.7957 2.43704 86.9275 2.52069 87.0584 2.56106C87.1234 2.55961 87.3174 2.51197 87.3813 2.46724C87.4444 2.37922 87.3775 2.29412 87.4405 2.20611C87.5045 2.16137 87.5675 2.07336 87.6975 2.07045C88.4112 2.01119 89.1326 2.29815 89.9074 2.06431C90.1013 2.01667 89.7212 2.45819 90.2361 2.23016C90.4291 2.13924 90.5571 2.04978 90.6851 1.96031C90.7491 1.91558 90.9459 1.99778 90.9459 1.99778C90.9527 2.30073 91.1524 2.51277 91.2882 2.76954C91.2892 2.81281 91.2252 2.85755 91.1621 2.94556C91.1631 2.98884 91.0991 3.03357 91.0991 3.03357C91.231 3.11722 91.6848 3.06377 91.8118 2.93102C91.9388 2.79828 92.0659 2.66553 91.7381 2.54296C91.6072 2.50259 91.4104 2.42039 91.4084 2.33384C91.3415 2.24873 91.4036 2.11744 91.4666 2.02943C91.5326 2.07125 91.6635 2.11163 91.7294 2.15345C91.7944 2.152 91.8603 2.19382 91.9243 2.14909C92.6351 1.95999 93.2887 2.11857 94.0033 2.10258C94.4581 2.0924 94.9119 2.03895 95.3648 1.94222C95.6237 1.89312 95.6877 1.84839 95.7575 2.06333C95.8273 2.27827 96.0862 2.22918 96.2801 2.18154C96.4091 2.13535 96.0164 2.01424 96.2753 1.96514C96.4043 1.91896 96.6011 2.00116 96.796 1.9968C97.1208 1.98953 97.5078 1.85097 97.7046 1.93317C98.0323 2.05574 98.2883 1.87681 98.6142 1.91282C99.0699 1.94592 99.3298 1.94011 99.5286 2.10886C99.6604 2.19251 99.7273 2.27762 99.8592 2.36127C99.9252 2.4031 100.055 2.40019 100.12 2.39874C100.184 2.354 100.247 2.26599 100.181 2.22417C100.114 2.13906 99.9174 2.05686 100.175 1.96449C100.563 1.86921 101.014 1.68592 101.342 1.80849C101.539 1.89069 101.668 1.8445 101.797 1.79831C102.122 1.79105 101.995 1.96707 101.998 2.09691C101.934 2.14164 101.87 2.18637 101.742 2.27584C101.742 2.27584 101.742 2.27584 101.741 2.23256C101.676 2.23401 101.611 2.23547 101.612 2.27875C101.612 2.27875 101.613 2.32203 101.614 2.3653C101.679 2.36385 101.678 2.32057 101.742 2.27584C101.805 2.18783 101.869 2.14309 101.998 2.09691C102.128 2.094 102.259 2.13437 102.323 2.08964C102.902 1.81688 102.902 1.81688 103.556 1.97546C103.752 2.01438 104.08 2.18023 104.137 1.83254C104.137 1.83254 104.396 1.78345 104.462 1.82528C104.593 1.86565 104.661 1.99403 104.793 2.07768C104.856 1.98967 104.918 1.85838 105.047 1.8122C105.306 1.7631 105.63 1.71256 105.89 1.70674C106.279 1.69802 106.673 1.86242 107.058 1.6373L107.123 1.63584C107.456 1.97481 107.778 1.8377 108.165 1.69915C108.229 1.65441 108.682 1.60096 108.624 1.90537C108.628 2.07848 108.952 2.02794 109.147 2.02358C109.341 1.97594 109.533 1.84174 109.725 1.70754C109.79 1.70609 109.92 1.70318 109.921 1.74646C109.989 1.87484 109.733 2.05377 110.058 2.08979C110.384 2.1258 110.712 2.24837 111.032 2.0247C111.095 1.93669 111.224 1.8905 111.353 1.84432C111.481 1.75485 111.676 1.75049 111.808 1.83414C111.94 1.96107 112.135 1.95671 112.198 1.8687C112.452 1.60321 112.777 1.59594 113.166 1.54394C113.62 1.49049 113.878 1.39812 114.273 1.60579C114.404 1.68944 114.729 1.68218 114.858 1.63599C115.374 1.45124 115.701 1.53053 116.16 1.69348C116.226 1.7353 116.614 1.6833 116.613 1.64002C116.735 1.2476 117.132 1.58511 117.325 1.4942C117.591 1.74806 117.979 1.65278 118.369 1.68734C118.694 1.68007 118.959 1.89065 119.346 1.75209C119.475 1.7059 119.736 1.74337 119.932 1.78229C120.322 1.81685 120.779 1.89323 121.168 1.84123C121.621 1.7445 121.886 1.95508 122.209 1.90453C122.469 1.89872 122.728 1.84962 122.986 1.75725C123.308 1.62014 123.759 1.43685 124.22 1.68635C124.35 1.72673 124.607 1.59107 124.867 1.58526C125.127 1.57945 125.387 1.57363 125.583 1.61255C125.78 1.69475 125.911 1.73512 126.103 1.60092C126.167 1.55619 126.427 1.55037 126.556 1.50419C126.621 1.50274 126.686 1.54456 126.751 1.54311C126.687 1.58784 126.622 1.58929 126.558 1.63403C126.494 1.67876 126.431 1.76677 126.302 1.81296C126.368 1.85478 126.434 1.89661 126.499 1.89515C127.085 1.92535 127.672 1.99883 128.185 1.68425C128.447 1.80827 128.709 1.88901 129.033 1.83847C129.098 1.83701 129.161 1.749 129.225 1.70427C129.688 2.04033 130.072 1.77193 130.587 1.58719C130.588 1.63046 130.459 1.67665 130.459 1.67665C130.527 1.80504 130.594 1.89014 130.662 2.01852C130.726 1.97379 130.791 1.97234 130.79 1.92906C130.788 1.8425 130.72 1.71412 130.587 1.58719C131.232 1.35625 131.232 1.35625 131.755 1.47446C131.82 1.47301 131.887 1.55811 131.886 1.51484C132.467 1.32864 133.121 1.5305 133.639 1.43231C133.898 1.38322 133.965 1.46832 134.095 1.46541C134.617 1.54034 135.135 1.48544 135.584 1.21559C135.841 1.07994 136.036 1.07557 136.235 1.24433C136.301 1.28616 136.303 1.37271 136.304 1.41599C136.368 1.37126 136.366 1.2847 136.43 1.23997C136.557 1.10723 136.752 1.10287 136.82 1.23125C136.887 1.31635 136.955 1.48802 136.957 1.57458C136.96 1.70441 137.026 1.74624 137.154 1.65677C137.218 1.61204 137.281 1.52403 137.28 1.48075C137.279 1.43747 137.213 1.39564 137.148 1.3971C137.082 1.35527 137.081 1.31199 137.015 1.22689C137.079 1.22543 137.209 1.22253 137.274 1.22107C137.534 1.21526 137.667 1.34219 137.737 1.55713C137.737 1.55713 137.737 1.55713 137.736 1.51385C137.671 1.51531 137.606 1.51676 137.607 1.56004C137.607 1.56004 137.608 1.60332 137.609 1.6466C137.674 1.64514 137.673 1.60187 137.737 1.55713C137.864 1.42439 137.991 1.29164 138.121 1.28874C138.38 1.23964 138.647 1.58006 138.966 1.31312C139.159 1.17892 139.482 1.12837 139.742 1.12256C140.067 1.11529 140.392 1.10802 140.72 1.23059C140.981 1.31134 141.503 1.38627 141.63 1.25352C142.144 0.982221 142.603 1.14516 143.058 1.13499C143.123 1.13353 143.319 1.21573 143.32 1.25901C143.324 1.43213 143.519 1.42777 143.648 1.38158C144.034 1.19974 144.488 1.14629 144.944 1.17939C145.139 1.17503 145.396 1.08266 145.591 1.0783C145.786 1.07394 146.046 1.06812 146.178 1.15178C146.442 1.31908 146.565 1.01322 146.762 1.09541C146.893 1.13579 147.284 1.21362 147.278 0.91067C147.278 0.91067 147.602 0.860122 147.731 0.857216C148.708 0.921971 149.616 0.815063 150.59 0.793259C150.655 0.791806 150.721 0.833632 150.786 0.832179C151.113 0.911469 151.44 0.990759 151.695 0.768549C151.886 0.591072 152.147 0.671816 152.342 0.667455C152.603 0.704921 152.799 0.743839 152.994 0.739478C153.319 0.732211 153.579 0.726396 153.903 0.719128C154.163 0.713314 154.424 0.75078 154.749 0.743512C155.009 0.737698 155.332 0.643872 155.463 0.684244C155.726 0.851547 155.854 0.718802 156.047 0.671162C156.434 0.532603 156.509 0.963941 156.96 0.78065C157.153 0.689731 157.608 0.679556 157.805 0.761753C158.066 0.842498 158.131 0.841044 158.324 0.750125C158.646 0.61302 159.034 0.51774 159.425 0.552298C159.686 0.589763 160.012 0.625775 160.334 0.531949C160.528 0.484309 160.921 0.605425 161.183 0.686169C161.249 0.727995 161.382 0.854926 161.444 0.723635C161.566 0.374494 162.159 0.750924 162.218 0.446516C162.485 0.786936 162.866 0.388702 163.193 0.467992C163.52 0.547283 163.906 0.365445 164.234 0.531294C164.563 0.697144 164.945 0.342189 165.34 0.549863C165.406 0.591689 165.729 0.497863 165.988 0.448769C166.182 0.401129 166.44 0.308757 166.505 0.350582C166.901 0.601537 167.354 0.504803 167.745 0.539361C167.941 0.57828 168.332 0.656117 168.326 0.353163L168.39 0.30843C168.977 0.425186 169.621 0.150975 170.144 0.269184C170.47 0.348475 170.728 0.256102 170.989 0.293567C171.25 0.331032 171.383 0.457963 171.771 0.362684C172.03 0.31359 172.353 0.219763 172.677 0.169217C172.742 0.167763 172.805 0.123031 172.87 0.121577C173.263 0.242693 173.781 0.144506 174.108 0.223797C174.5 0.301634 174.756 0.165982 175.083 0.245273C175.41 0.324564 175.735 0.317296 176.125 0.308575C176.19 0.307121 176.318 0.217656 176.382 0.172923C176.446 0.12819 176.639 0.0372715 176.705 0.079097C177.295 0.32569 177.946 0.354434 178.592 0.166782C178.721 0.120596 178.985 0.331177 179.179 0.283537C179.373 0.235897 179.501 0.146432 179.699 0.271909C179.83 0.312281 180.153 0.218455 180.22 0.30356C180.417 0.429037 180.677 0.423223 180.872 0.418862C181.584 0.273036 182.367 0.38543 183.082 0.41272C183.212 0.409813 183.341 0.363628 183.47 0.317441C184.377 0.167254 185.221 0.148358 186.136 0.344404C186.332 0.383323 186.59 0.29095 186.721 0.374602C186.919 0.500078 187.179 0.494265 187.374 0.489904C187.569 0.485543 187.761 0.351344 187.96 0.5201C187.96 0.5201 188.09 0.517194 188.155 0.51574C188.733 0.199704 189.386 0.358285 189.971 0.345203C190.361 0.336482 190.814 0.283028 191.269 0.272853C191.724 0.262679 192.118 0.427074 192.568 0.200503C192.696 0.111038 193.023 0.233607 193.283 0.227793C193.804 0.259444 194.259 0.249269 194.778 0.194362C195.296 0.139454 195.877 -0.0467446 196.469 0.243128C196.665 0.325326 197.187 0.400256 197.507 0.176592C198.096 0.336627 198.738 -0.0241424 199.263 0.223905C199.395 0.307556 199.72 0.300288 199.912 0.16609C200.17 0.0737172 200.237 0.158822 200.241 0.331939C200.247 0.591614 200.312 0.63344 200.634 0.496335C200.763 0.450148 200.891 0.360683 201.02 0.314497L201.541 0.346147C201.8 0.297054 202.059 0.247961 202.319 0.242147C202.514 0.237786 202.711 0.363262 202.905 0.315623C203.358 0.218889 203.685 0.29818 203.951 0.552041C204.017 0.593867 204.212 0.589507 204.342 0.629879C204.342 0.629879 204.342 0.629879 204.277 0.631332C204.278 0.674612 204.279 0.71789 204.344 0.716437C204.344 0.716437 204.409 0.714983 204.474 0.71353C204.473 0.670251 204.408 0.671704 204.342 0.629879C204.276 0.544774 204.34 0.500041 204.338 0.413483C204.403 0.412029 204.468 0.410575 204.533 0.452401L204.599 0.494227C205.502 0.170923 206.416 0.32369 207.326 0.346619C207.391 0.345166 207.521 0.342259 207.585 0.297526C207.907 0.160421 207.781 0.336444 207.783 0.423003C207.784 0.466282 207.85 0.508108 207.915 0.506654C208.303 0.411375 208.69 0.316095 208.956 0.569956C209.278 0.432851 209.67 0.510687 209.993 0.416861C210.187 0.369222 210.316 0.323035 210.513 0.448513C210.579 0.490338 210.774 0.485977 210.905 0.526349C211.623 0.640198 212.399 0.449639 213.055 0.738058C213.121 0.779884 213.44 0.51294 213.512 0.814441C213.447 0.815895 213.383 0.860628 213.318 0.862081C213.384 0.903907 213.45 0.945732 213.45 0.945732C213.585 1.2025 214.038 1.10577 214.238 1.3178C214.438 1.52984 214.701 1.65386 214.705 1.87026C214.71 2.08665 215.17 2.29287 214.72 2.51945C214.527 2.61037 215.051 2.77185 214.729 2.90896C214.407 3.04606 214.734 3.16863 214.737 3.29847C214.681 3.68944 214.691 4.12223 214.57 4.51465C214.51 4.77578 213.993 4.87397 213.999 5.17692C214 5.2202 213.733 4.87978 213.674 5.18419C213.676 5.27075 213.744 5.39913 213.811 5.48423C213.88 5.6559 213.817 5.74391 213.491 5.7079C213.361 5.71081 213.167 5.75845 213.168 5.80173C213.24 6.10323 212.915 6.11049 212.589 6.07448C212.33 6.0803 212.067 5.95627 211.811 6.1352C211.747 6.17994 211.551 6.14102 211.485 6.09919C211.222 5.97517 210.961 5.9377 210.639 6.07481C210.381 6.16718 210.187 6.17154 209.989 6.04607L209.858 6.00569C209.731 6.13844 209.603 6.2279 209.411 6.3621C209.214 6.2799 209.079 6.06641 208.884 6.07078C208.624 6.07659 208.434 6.29735 208.234 6.04203C207.849 6.26715 207.388 6.01765 207 6.11293C206.417 6.21257 206.027 6.17801 205.631 5.92706C205.565 5.88523 205.369 5.84631 205.24 5.8925C204.787 5.98923 204.334 6.04269 204.013 6.22307C203.691 6.36018 203.623 6.23179 203.427 6.19287C202.969 6.07321 202.383 5.99973 201.864 6.05464C201.604 6.06046 201.345 6.10955 201.085 6.11536C200.825 6.12118 200.497 5.99861 200.242 6.22082C200.044 6.05206 199.848 6.01314 199.592 6.19208C199.592 6.19208 199.462 6.19498 199.397 6.19644C199.006 6.16188 198.674 5.86619 198.225 6.09276C197.903 6.22987 197.443 6.02365 197.057 6.20548C196.928 6.25167 196.667 6.21421 196.471 6.17529C196.081 6.14073 195.623 6.02107 195.366 6.15672C194.98 6.33856 194.711 5.95486 194.325 6.1367C194.133 6.27089 193.611 6.15268 193.221 6.16141C192.961 6.16722 192.764 6.08502 192.569 6.08938C192.504 6.09084 192.373 6.05046 192.373 6.05046C191.859 6.27849 191.272 6.20501 190.751 6.17336C190.491 6.17918 190.104 6.31773 190.038 6.23263C189.773 6.02205 189.519 6.28754 189.257 6.20679C188.996 6.16933 188.737 6.21842 188.478 6.26751C188.154 6.31806 187.7 6.32824 187.372 6.20567C186.717 6.00381 186.068 6.01834 185.355 6.12089C184.771 6.17725 184.184 6.06049 183.599 6.07358C183.143 6.04047 182.686 5.96409 182.235 6.14738C181.914 6.28448 181.646 5.94406 181.259 6.08262C181.066 6.17354 180.611 6.18372 180.282 5.97459C180.216 5.93276 180.022 5.9804 179.893 6.02659C179.505 6.12187 179.116 6.17387 178.725 6.13931C178.334 6.10475 177.941 5.94036 177.557 6.20876C177.356 5.95344 176.841 6.18147 176.575 5.9276L176.445 5.93051C176.061 6.15563 175.604 6.07924 175.084 6.09087C174.824 6.09669 174.634 6.31744 174.433 6.06213C174.433 6.06213 174.367 6.0203 174.368 6.06358C173.854 6.29161 173.263 6.04501 172.68 6.14465C172.486 6.19229 172.292 6.23993 172.096 6.20102C171.771 6.165 171.448 6.25883 171.119 6.09298C170.988 6.05261 170.603 6.27773 170.408 6.28209C170.083 6.28935 169.692 6.21152 169.366 6.17551C168.91 6.1424 168.454 6.1093 167.999 6.07619C167.934 6.07765 167.806 6.16711 167.741 6.16857C167.286 6.17874 166.895 6.14418 166.442 6.24092C166.054 6.3362 165.595 6.12997 165.143 6.26999C165.078 6.27144 164.945 6.14451 164.814 6.10414C164.616 5.97866 164.486 5.98157 164.36 6.15759C164.361 6.20087 164.167 6.24851 164.037 6.25142C163.649 6.30342 163.188 6.05392 162.739 6.32377C162.408 6.07136 162.085 6.12191 161.698 6.26047C161.3 5.92295 160.981 6.1899 160.66 6.37028C160.462 6.2448 160.34 6.59395 160.075 6.38336C159.943 6.29971 159.555 6.35171 159.423 6.26806C159.225 6.14258 159.094 6.10221 159.099 6.31861L159.035 6.36334C158.84 6.3677 158.645 6.37206 158.449 6.33314C158.253 6.29422 158.055 6.16875 157.991 6.21348C157.799 6.3044 157.669 6.30731 157.471 6.18183C157.338 6.0549 156.948 6.06362 157.399 5.88033C157.464 5.87887 157.462 5.79232 157.526 5.74758C157.461 5.74904 157.33 5.70867 157.33 5.70867C157.138 5.84286 156.876 5.76212 156.686 5.98288C156.433 6.29164 155.845 6.13161 155.524 6.31199C155.518 6.05232 155.193 6.05959 154.931 5.97884C154.539 5.901 154.217 5.99483 153.962 6.26032C153.898 6.30505 153.834 6.34979 153.769 6.35124C153.705 6.35269 153.51 6.35705 153.445 6.35851C152.985 6.15229 152.468 6.29375 152.015 6.39049C151.886 6.43667 151.626 6.44249 151.56 6.35738C151.23 6.14825 150.71 6.15988 150.451 6.20897C150.127 6.25952 149.866 6.17878 149.737 6.22496C149.479 6.31734 149.217 6.23659 148.957 6.24241C148.632 6.24967 148.63 6.16312 148.887 6.02746C148.821 5.98564 148.755 5.94381 148.69 5.94527C148.299 5.86743 147.911 5.96271 147.59 6.14309C147.526 6.18783 147.528 6.27438 147.528 6.27438C147.594 6.31621 147.724 6.3133 147.789 6.35513C147.725 6.39986 147.596 6.40277 147.532 6.4475C147.275 6.58315 147.081 6.63079 146.818 6.50677C146.489 6.34092 145.968 6.30927 145.645 6.4031C145.13 6.58784 144.996 6.41763 144.732 6.25033C144.665 6.16522 144.469 6.12631 144.338 6.08593C144.273 6.08739 144.209 6.13212 144.144 6.13357C143.888 6.3125 143.567 6.49289 143.178 6.50161C142.983 6.50597 142.787 6.46705 142.593 6.51469C142.398 6.51905 142.202 6.48013 142.007 6.48449C141.812 6.48885 141.621 6.66633 141.487 6.45284L141.422 6.4543C141.294 6.54376 141.101 6.63468 140.973 6.72415C140.906 6.63904 140.773 6.51211 140.706 6.42701C140.706 6.42701 140.576 6.42991 140.511 6.43137C140.189 6.56847 139.413 6.75903 139.283 6.76194C139.024 6.76775 138.891 6.64082 138.822 6.46916C138.755 6.38406 138.818 6.29604 138.816 6.20948C138.749 6.12438 138.618 6.08401 138.552 6.04218C138.489 6.13019 138.491 6.21675 138.428 6.30476C138.429 6.34804 138.43 6.39132 138.431 6.4346C138.302 6.48079 138.173 6.52697 138.045 6.61644C137.98 6.61789 137.916 6.66263 137.851 6.66408C137.589 6.58334 137.198 6.5055 137.004 6.55314C137.003 6.50986 137.002 6.46658 137.128 6.29056C137.191 6.20254 137.128 6.29056 137.065 6.37857C137.065 6.37857 137.131 6.42039 137.132 6.46367C137.26 6.37421 137.324 6.32947 137.452 6.24001C137.387 6.24146 137.321 6.19964 137.128 6.29056C137.002 6.46658 136.937 6.46803 136.872 6.46949C136.938 6.51131 137.004 6.55314 137.004 6.55314C137.007 6.68297 136.947 6.9441 136.619 6.77825C136.422 6.69606 135.906 6.8808 135.962 6.48984C136.026 6.4451 136.09 6.40037 136.218 6.31091C135.891 6.23161 135.63 6.15087 135.302 6.0283C135.303 6.07158 135.303 6.07158 135.304 6.11486C135.245 6.37599 135.246 6.41927 134.983 6.29524C134.589 6.13085 134.268 6.31123 134.01 6.4036C133.688 6.54071 133.689 6.58399 133.363 6.5047C133.298 6.50615 133.233 6.50761 133.168 6.50906C132.973 6.51342 132.778 6.51778 132.582 6.47886C132.386 6.43994 132.125 6.40248 131.993 6.31883C131.795 6.15007 131.669 6.36937 131.475 6.37374C131.216 6.42283 131.014 6.12423 130.952 6.25553C130.892 6.47337 130.63 6.39263 130.502 6.4821C130.245 6.61775 130.243 6.53119 130.24 6.40135C130.239 6.35807 130.109 6.36098 130.043 6.31915C130.052 6.70867 129.526 6.46062 129.27 6.59627C129.014 6.7752 128.811 6.43333 128.55 6.39587C128.485 6.39732 128.482 6.26748 128.481 6.2242C128.417 6.26894 128.418 6.31221 128.354 6.35695C128.227 6.48969 128.101 6.66572 127.771 6.45659C127.77 6.41331 127.511 6.4624 127.512 6.50568C127.39 6.85482 126.933 6.73516 126.865 6.60677C126.729 6.35001 126.342 6.48857 126.08 6.40782C125.753 6.32853 125.494 6.33434 125.617 6.02848C125.617 6.02848 125.551 5.98666 125.485 5.94483C125.421 5.98956 125.422 6.03284 125.357 6.0343C125.107 6.4729 125.107 6.4729 124.387 6.2725C124.191 6.23358 124.126 6.23503 124 6.41105C123.876 6.67364 123.747 6.71982 123.419 6.59725C123.223 6.51506 123.091 6.43141 122.96 6.39103C122.894 6.34921 122.699 6.35357 122.699 6.35357C122.253 6.75326 122.178 6.32192 121.98 6.19644C121.784 6.11424 121.588 6.07532 121.392 6.0364C121.327 6.03786 121.263 6.08259 121.198 6.08404C121.135 6.17206 121.007 6.26152 120.944 6.34953C120.692 6.70158 120.562 6.70449 120.1 6.41171C119.836 6.24441 119.7 5.94436 119.181 5.99927C118.856 6.00653 119.049 5.91562 119.177 5.82615L119.11 5.74105C119.045 5.7425 118.979 5.70067 118.915 5.74541C118.85 5.74686 118.851 5.79014 118.787 5.83487C118.725 5.96616 118.86 6.17965 118.601 6.22875C118.472 6.27493 118.274 6.14945 118.078 6.11054C118.013 6.11199 117.949 6.15672 117.95 6.2C117.761 6.46404 117.633 6.5535 117.37 6.3862C117.107 6.26218 116.653 6.31563 116.645 5.9694C116.64 5.753 116.318 5.84683 116.255 5.97812C116.129 6.15414 116.002 6.28689 115.676 6.2076C115.611 6.20905 115.609 6.12249 115.608 6.07921C115.736 5.98975 115.8 5.94501 115.539 5.90755C115.474 5.909 115.345 5.95519 115.346 5.99847C115.349 6.12831 115.157 6.2625 115.484 6.34179C115.549 6.34034 115.616 6.46872 115.682 6.51055C115.553 6.55674 115.424 6.60292 115.359 6.60438C114.84 6.616 114.64 6.40397 114.504 6.1472C114.503 6.10392 114.437 6.0621 114.436 6.01882C114.372 6.06355 114.308 6.10828 114.309 6.15156C114.246 6.23957 114.313 6.32468 114.25 6.41269C114.251 6.45597 114.123 6.54544 114.057 6.50361C113.731 6.4676 113.279 6.56433 113.014 6.35375C112.882 6.2701 111.776 6.25153 111.646 6.21116C111.255 6.1766 111.46 6.64831 110.937 6.48682C110.74 6.40462 110.417 6.49845 110.158 6.54754C109.575 6.64718 108.99 6.61699 108.405 6.63007C108.21 6.63443 107.949 6.59696 107.954 6.81336C107.954 6.81336 107.695 6.86245 107.63 6.86391C107.364 6.61005 107.173 6.78752 106.98 6.87844C106.916 6.92318 106.657 6.97227 106.657 6.97227C106.392 6.71841 106.135 6.85406 105.943 6.98826C105.879 7.03299 105.813 6.99117 105.748 6.99262C105.746 6.90606 105.745 6.86278 105.872 6.73004C105.871 6.68676 105.872 6.73004 105.807 6.73149C105.808 6.77477 105.873 6.77332 105.874 6.81659C105.938 6.77186 105.938 6.77186 106.002 6.72713C106.002 6.72713 105.936 6.6853 105.872 6.73004C105.484 6.82532 105.225 6.87441 104.9 6.88168C104.576 6.88894 104.575 6.84566 104.83 6.62345C104.96 6.62055 105.221 6.70129 105.346 6.43871C105.345 6.39543 105.346 6.43871 105.281 6.44016C105.282 6.48344 105.347 6.48199 105.347 6.52527C105.411 6.48054 105.411 6.48054 105.475 6.4358C105.475 6.4358 105.41 6.39398 105.346 6.43871C105.088 6.53108 104.89 6.40561 104.83 6.62345C104.636 6.67109 104.629 6.36814 104.373 6.54707C104.182 6.72455 103.922 6.73036 103.661 6.6929C103.335 6.65689 103.14 6.66125 103.147 6.9642C103.151 7.13732 102.631 7.14895 102.563 6.97728C102.424 6.59068 102.168 6.76961 101.91 6.86198C101.716 6.90962 101.522 6.95726 101.394 7.04673C101.201 7.13765 101.073 7.22711 101.067 6.96744C101.066 6.92416 100.87 6.88524 100.74 6.84487C100.345 6.63719 99.6952 6.65173 99.6846 6.17566C99.6836 6.13238 99.4887 6.13674 99.4227 6.09491C99.3578 6.09636 99.2928 6.09782 99.2278 6.09927C99.2288 6.14255 99.1648 6.18728 99.2307 6.22911C99.4305 6.44115 99.6293 6.6099 99.764 6.82339C99.83 6.86522 99.702 6.95468 99.7039 7.04124C99.573 7.00087 99.5071 6.95904 99.3752 6.87539C99.3093 6.83356 99.2433 6.79174 98.9146 6.62589C98.7187 6.58697 98.8506 6.67062 98.9815 6.711C99.0465 6.70954 99.1105 6.66481 99.1755 6.66336C99.0426 6.53643 98.9757 6.45132 98.8429 6.32439C98.7789 6.36912 98.7149 6.41385 98.8487 6.58406C99.1774 6.74991 99.2433 6.79174 99.3093 6.83356C99.2453 6.8783 99.1822 6.96631 99.1173 6.96776C98.4666 6.93902 97.816 6.91028 97.1653 6.88153C97.0354 6.88444 96.9035 6.80079 96.7726 6.76042C96.5767 6.7215 96.2509 6.68549 96.1239 6.81823C95.9338 7.03899 95.7408 7.12991 95.3491 7.05207C95.0882 7.0146 94.7711 7.3681 94.6315 6.93822C94.6296 6.85166 94.1729 6.77528 93.847 6.73927C93.5862 6.7018 93.655 6.87347 93.658 7.0033C93.5319 7.17933 93.5319 7.17933 93.3312 6.92401C93.3302 6.88073 93.3312 6.92401 93.2662 6.92547C93.2672 6.96874 93.3321 6.96729 93.3331 7.01057C93.3971 6.96584 93.3971 6.96584 93.4611 6.9211C93.4611 6.9211 93.3952 6.87928 93.3312 6.92401C93.0102 7.1044 92.7503 7.11021 92.6805 6.89527C92.6136 6.81016 92.6766 6.72215 92.6747 6.63559C92.6747 6.63559 92.4788 6.59667 92.4798 6.63995C92.4158 6.68469 92.4177 6.77124 92.3537 6.81598C92.2878 6.77415 92.2868 6.73087 92.2209 6.68905C92.217 6.51593 91.9581 6.56502 91.8282 6.56793C91.7632 6.56938 91.5702 6.6603 91.5712 6.70358C91.641 6.91852 91.3162 6.92579 91.1222 6.97343C91.0573 6.97489 90.9923 6.97634 90.9273 6.97779C90.8498 6.41662 90.4066 6.94614 90.1458 6.90868C89.9499 6.86976 89.7618 7.17707 89.435 7.09778C89.1741 7.06032 88.9802 7.10796 89.0394 6.84683C89.0374 6.76027 88.9696 6.63189 88.8377 6.54824C88.7058 6.46458 88.5099 6.42567 88.4488 6.60024C88.4546 6.85991 88.3267 6.94938 87.9349 6.87154C87.6741 6.83407 87.4151 6.88317 87.2183 6.80097C86.9555 6.67695 86.8906 6.6784 86.8954 6.8948C86.8304 6.89625 86.7655 6.8977 86.6995 6.85588C86.5696 6.85878 86.3727 6.77659 86.3737 6.81987C85.7977 7.22246 85.1403 6.89076 84.5565 6.94712C84.2967 6.95294 84.6768 6.51142 84.2278 6.78127C83.9068 6.96166 83.6479 7.01075 83.3832 6.80017C83.2514 6.71652 82.9265 6.72379 83.1912 6.93437C83.1272 6.9791 83.0632 7.02383 82.9982 7.02529C82.6734 7.03256 82.2826 6.998 81.8909 6.92016C81.8259 6.92161 81.8909 6.92016 81.8918 6.96344C81.9568 6.96199 81.9558 6.91871 82.0208 6.91725C81.9549 6.87543 81.9549 6.87543 81.8889 6.8336C81.8889 6.8336 81.8249 6.87833 81.8909 6.92016C81.9587 7.04854 81.8957 7.13656 81.8977 7.22312C81.7667 7.18274 81.5718 7.1871 81.5709 7.14382C81.5001 6.8856 81.1743 6.84959 80.9125 6.76885C80.6516 6.73138 80.4567 6.73574 80.3316 6.95505C80.1435 7.26236 80.0785 7.26381 79.4928 7.23362C79.2979 7.23798 79.1021 7.19906 78.9072 7.20342C78.8422 7.20487 78.7762 7.16305 78.7753 7.11977C78.8402 7.11832 78.9692 7.07213 79.0342 7.07068C79.0982 7.02594 79.1612 6.93793 79.2252 6.8932C79.0943 6.85283 78.9634 6.81245 78.8994 6.85719C78.5106 6.90919 78.2546 7.08812 78.3263 7.38962C78.3273 7.4329 78.2633 7.47763 78.1983 7.47908C78.1973 7.4358 78.1314 7.39398 78.1314 7.39398C78.1304 7.3507 78.1295 7.30742 78.1285 7.26414C78.1246 7.09103 78.1217 6.96119 78.1178 6.78807C77.8589 6.83716 77.5331 6.80115 77.2752 6.89353C76.9532 7.03063 76.7613 7.16483 76.3695 7.08699C76.1736 7.04807 75.8507 7.1419 75.9089 6.83749C75.9089 6.83749 75.4512 6.71783 75.2573 6.76547C74.9993 6.85784 74.8064 6.94876 74.6066 6.73672C74.6066 6.73672 74.4117 6.74108 74.3477 6.78582C74.2837 6.83055 74.2207 6.91856 74.1577 7.00657C73.827 6.75417 73.5109 7.15095 73.314 7.06875C72.9853 6.9029 72.6624 6.99673 72.3356 6.91744C72.2707 6.91889 72.2678 6.78905 72.2668 6.74577C72.1979 6.57411 72.005 6.66503 71.3514 6.50645C70.8937 6.38678 70.9597 6.42861 71.0256 6.47044C71.2215 6.50935 71.4164 6.50499 71.6123 6.54391C71.6772 6.54246 71.6821 6.75885 71.8731 6.58138C71.9371 6.53664 71.8702 6.45154 71.8043 6.40971C71.5386 6.15585 71.0838 6.16603 71.3524 6.54973C71.877 6.75449 71.9439 6.8396 72.0098 6.88142C71.8799 6.88433 71.7509 6.93052 71.621 6.93342C71.3592 6.85268 71.0954 6.68538 70.7764 6.95232C70.7133 7.04033 70.6493 7.08507 70.5863 7.17308C70.5844 7.08652 70.5175 7.00141 70.5155 6.91486C70.5728 6.56717 70.0627 7.01159 70.0569 6.75191C69.9279 6.7981 69.668 6.80391 69.8019 6.97412C69.9366 7.18761 69.5468 7.19633 69.6157 7.368C69.5507 7.36945 69.4208 7.37236 69.3568 7.41709C69.3558 7.37381 69.3538 7.28725 69.3538 7.28725C69.5458 7.15306 69.3519 7.2007 69.221 7.16032C69.0242 7.07813 68.6974 6.99883 69.0833 6.817C69.0164 6.73189 68.8855 6.69152 68.8186 6.60641C68.7546 6.65115 68.7556 6.69443 68.6916 6.73916C68.6276 6.78389 68.4976 6.7868 68.4976 6.7868C68.3638 6.61659 68.0409 6.71042 67.845 6.6715C67.8431 6.58494 67.8412 6.49838 67.9042 6.41037C68.294 6.40165 68.0943 6.18961 68.1563 6.05832L68.0254 6.01795C67.8315 6.06559 67.7035 6.15505 67.5105 6.24597C67.4455 6.24743 67.3806 6.24888 67.1847 6.20996C67.1197 6.21141 67.1847 6.20996 67.1857 6.25324C67.2506 6.25179 67.2497 6.20851 67.3146 6.20705C67.2487 6.16523 67.2487 6.16523 67.1828 6.1234C67.1828 6.1234 67.1188 6.16814 67.1847 6.20996C67.3166 6.29361 67.3825 6.33544 67.4494 6.42054C67.5813 6.50419 67.7141 6.63113 67.846 6.71478C67.6588 7.06537 67.6588 7.06537 67.1381 7.03372C67.0732 7.03517 67.0072 6.99335 67.0072 6.99335C66.6834 7.04389 66.3585 7.05116 66.0986 7.05698C65.7079 7.02242 65.3772 6.77001 64.9942 7.08169C64.8022 7.21588 64.3454 7.1395 64.1457 6.92747C64.0788 6.84236 63.8839 6.84672 63.753 6.80635C63.7549 6.89291 63.8868 6.97656 63.8218 6.97801C63.6938 7.06748 63.5649 7.11366 63.4359 7.15985C63.369 7.07475 63.3021 6.98964 63.3632 6.81507C63.3622 6.77179 63.3632 6.81507 63.2982 6.81652C63.2992 6.8598 63.3641 6.85835 63.3651 6.90163C63.4291 6.8569 63.4291 6.8569 63.4931 6.81216C63.4931 6.81216 63.4272 6.77034 63.3632 6.81507C63.2361 6.94782 63.1072 6.994 63.1081 7.03728C63.112 7.2104 63.37 7.11803 63.5009 7.1584C63.5028 7.24496 63.5038 7.28823 63.4407 7.37625C63.3758 7.3777 63.3108 7.37915 63.2449 7.33733C63.1139 7.29696 62.919 7.30132 62.7881 7.26095C62.5263 7.1802 62.9152 7.1282 62.8483 7.0431C62.7154 6.91617 62.3266 6.96817 62.2655 7.14274C62.2044 7.31731 62.1414 7.40532 61.8805 7.36785C61.6846 7.32893 61.4897 7.3333 61.2948 7.33766C61.0999 7.34202 61.033 7.25691 61.0301 7.12707C60.9622 6.99869 60.8333 7.04488 60.8362 7.17471C60.7751 7.34928 60.6442 7.30891 60.4483 7.26999C60.0546 7.1056 59.6619 6.98448 59.2061 6.95138C59.1412 6.95283 59.0743 6.86773 59.0083 6.8259C58.6777 6.57349 58.4168 6.53603 58.0968 6.75969C57.9679 6.80588 57.9048 6.89389 57.8418 6.9819C57.7749 6.8968 57.773 6.81024 57.7061 6.72513L57.6401 6.68331C57.5732 6.5982 57.5063 6.5131 57.3793 6.64584C57.3153 6.69058 57.1204 6.69494 57.2532 6.82187C57.3191 6.86369 57.2571 6.99498 57.2581 7.03826C57.1281 7.04117 56.9982 7.04408 56.9322 7.00225C56.6695 6.87823 56.4716 6.75275 56.0207 6.93604C55.6338 7.0746 55.0482 7.0444 54.5885 6.83818C54.2608 6.71561 53.998 6.59159 53.6082 6.60031C53.2184 6.60903 53.2184 6.60903 53.2892 6.86725C53.2901 6.91053 53.3561 6.95236 53.357 6.99564C53.359 7.0822 53.2959 7.17021 53.2329 7.25822C53.102 7.21785 52.9721 7.22076 52.9061 7.17893C52.7093 7.09673 52.6385 6.83851 52.3825 7.01744C51.9966 7.19928 51.9267 6.98434 51.7289 6.85886C51.662 6.77375 51.6591 6.64392 51.5912 6.51553C51.4642 6.64828 51.3372 6.78102 51.1442 6.87194C50.9512 6.96286 51.1471 7.00178 51.1491 7.08834C51.2179 7.26 51.2208 7.38984 50.9629 7.48221C50.8979 7.48366 50.8329 7.48512 50.768 7.48657C50.8262 7.18216 50.4373 7.23416 50.2424 7.23852C49.8526 7.24725 49.5859 6.95011 49.2 7.13194C49.2 7.13194 49.0691 7.09157 49.0032 7.04975C49.0051 7.1363 49.008 7.26614 49.073 7.26469C49.4637 7.29925 49.4007 7.38726 49.1428 7.47963C48.8848 7.572 48.6269 7.66438 48.6172 7.23158C48.6162 7.1883 48.5522 7.23304 48.5532 7.27632C48.5542 7.3196 48.5552 7.36288 48.5561 7.40615C48.6201 7.36142 48.7501 7.35851 48.7491 7.31524C48.7481 7.27196 48.7462 7.1854 48.6172 7.23158C48.3602 7.36724 48.0325 7.24467 47.9685 7.2894C47.7115 7.42505 47.5118 7.21302 47.3818 7.21592C47.1879 7.26356 46.9959 7.39776 46.8039 7.53196C46.8039 7.53196 46.673 7.49159 46.608 7.49304C46.4771 7.45267 46.4102 7.36756 46.6042 7.31992C46.7331 7.27374 46.8631 7.27083 46.9271 7.2261C46.992 7.22464 47.056 7.17991 47.056 7.17991C46.9901 7.13809 46.9242 7.09626 46.9242 7.09626C46.6003 7.14681 46.1387 6.85403 46.0175 7.24645C45.6936 7.29699 45.3688 7.30426 45.1128 7.48319C45.1128 7.48319 44.9819 7.44282 44.9159 7.40099C44.7152 7.14568 44.3264 7.19768 44.0015 7.20495C43.8066 7.20931 43.5497 7.34496 43.3509 7.1762C43.3509 7.1762 43.2219 7.22239 43.1579 7.26712C43.4226 7.47771 43.1637 7.5268 42.9659 7.40132C42.7691 7.31912 42.6382 7.27875 42.4423 7.23983C42.2474 7.24419 42.0515 7.20528 41.9914 7.42312C41.9933 7.50968 41.6035 7.5184 41.6006 7.38857C41.5958 7.17217 41.4008 7.17653 41.2059 7.18089C40.8171 7.23289 40.3613 7.19979 40.1053 7.37872C39.7194 7.56056 39.5226 7.47836 39.2598 7.35434C39.0629 7.27214 38.8661 7.18994 38.6693 7.10774C38.6043 7.1092 38.4744 7.1121 38.4744 7.1121C38.4162 7.41651 38.1524 7.24921 37.9575 7.25357C37.6976 7.25938 37.5027 7.26374 37.7665 7.43105L37.6385 7.52051C37.4416 7.43831 37.0528 7.49032 36.9859 7.40521C36.4555 6.94077 35.8785 7.30008 35.2948 7.35644C35.1648 7.35935 35.1028 7.49064 34.9728 7.49355C34.8429 7.49646 34.52 7.59028 34.5142 7.33061C34.5122 7.24405 34.3794 7.11712 34.2485 7.07675C34.1825 7.03492 33.9886 7.08256 33.9246 7.12729C33.8596 7.12875 33.7966 7.21676 33.7326 7.26149C33.7976 7.26004 33.9285 7.30041 33.9934 7.29896C34.0594 7.34078 34.1893 7.33788 34.2553 7.3797C34.1913 7.42443 34.1273 7.46917 34.0623 7.47062C33.6725 7.47934 33.2798 7.35823 32.8938 7.54006C32.8938 7.54006 32.7639 7.54297 32.6979 7.50114C32.697 7.45787 32.761 7.41313 32.825 7.3684C32.888 7.28039 33.081 7.18947 33.144 7.10146C33.207 7.01344 33.1392 6.88506 33.0732 6.84324C33.0073 6.80141 32.8114 6.76249 32.6825 6.80868C32.4235 6.85777 32.6854 6.93851 32.6863 6.98179C32.6912 7.19819 32.3062 7.42331 31.9814 7.43057C31.7215 7.43639 31.4616 7.4422 31.1358 7.40619C30.745 7.37163 30.4134 7.07595 30.0275 7.25779C29.6415 7.43962 29.2459 7.18867 28.86 7.37051C28.731 7.41669 28.3363 7.20902 28.2083 7.29848C27.8224 7.48032 27.8816 7.21919 27.6857 7.18028C27.6197 7.13845 27.4888 7.09808 27.4239 7.09953C27.1669 7.23518 26.908 7.28428 26.7102 7.1588C26.4474 7.03478 26.2564 7.21225 25.9955 7.17479C25.7996 7.13587 25.4758 7.18642 25.2828 7.27734C25.0258 7.41299 24.8309 7.41735 24.5681 7.29333C24.5022 7.2515 24.3742 7.34096 24.2443 7.34387C23.4666 7.44787 22.6918 7.68171 21.8462 7.65733C21.5864 7.66314 21.3304 7.84207 21.1384 7.97627C21.0104 8.06574 20.8833 8.19848 20.7553 8.28795C20.5517 7.9028 20.1725 8.38759 19.8429 8.17846C19.5791 8.01116 19.1243 8.02133 18.7374 8.15989C18.3505 8.29845 18.2206 8.30136 17.8259 8.09368C17.5631 7.96966 17.4322 7.92929 17.3731 8.19041C17.311 8.32171 17.1151 8.28279 16.9833 8.19914C16.6536 7.99001 16.2599 7.82561 15.745 8.05364C15.4153 7.84451 15.1612 8.11 14.8364 8.11727C14.3816 8.12744 13.9317 8.35401 13.4711 8.10451C13.2742 8.02231 12.8214 8.11905 12.5625 8.16814C12.2396 8.26197 12.1009 7.87536 11.651 8.10193C11.458 8.19285 11.0653 8.07173 10.7405 8.079C9.37515 8.06625 8.13203 7.70435 6.76769 7.73488C6.31291 7.74505 5.92116 7.66721 5.46832 7.76395C5.01547 7.86068 4.48895 7.56935 4.03223 7.49297C3.90132 7.4526 3.77042 7.41223 3.64048 7.41513C3.3806 7.42095 3.12557 7.64316 2.85989 7.3893C2.72704 7.26237 2.33723 7.27109 2.07639 7.23362C1.22792 7.0794 1.0854 6.51968 0.493901 6.22981C0.427965 6.18798 0.490997 6.09997 0.48906 6.01341C0.486155 5.88357 0.809062 5.78975 0.545314 5.62244C0.478409 5.53734 0.604473 5.36132 0.601568 5.23148C0.597695 5.05836 0.528853 4.8867 0.460011 4.71503C0.725696 4.9689 0.592854 4.84196 0.524012 4.6703C0.456138 4.54192 -0.257549 4.60119 0.255423 4.2866C0.384392 4.24042 0.314581 4.02547 0.246708 3.89709C0.111929 3.6836 0.173993 3.55231 0.430963 3.41666C0.559932 3.37047 0.74225 2.80348 0.674377 2.6751C0.533788 2.20193 0.533788 2.20193 1.30954 2.01137C1.69742 1.91609 2.08335 1.73426 2.40336 1.51059C2.59536 1.37639 2.72336 1.28693 3.0482 1.27966C3.37401 1.31567 3.70079 1.39496 4.02176 1.21458C4.08576 1.16985 4.28164 1.20876 4.41254 1.24914C4.67436 1.32988 4.87217 1.45536 5.13398 1.5361C5.32985 1.57502 5.6576 1.69759 5.78657 1.6514C6.23845 1.51139 6.30922 1.76961 6.5051 1.80853C6.636 1.8489 7.34872 1.74636 7.60666 1.65398C7.86363 1.51833 8.12351 1.51252 8.38435 1.54998C8.971 1.62346 9.23088 1.61764 9.9436 1.5151C10.1385 1.51074 10.3334 1.50638 10.4643 1.54675C11.1208 1.83517 11.8403 2.03557 12.554 1.97631C13.0087 1.96613 13.3966 1.87085 13.8524 1.90396C14.2432 1.93851 14.697 1.88506 15.1508 1.83161C15.2807 1.8287 15.4107 1.82579 15.4737 1.73778C15.7927 1.47084 16.5103 1.58469 16.7614 1.18936C16.7605 1.14608 16.8894 1.09989 16.9554 1.14172C17.1522 1.22392 17.222 1.43886 17.543 1.25847C17.607 1.21374 17.9997 1.33486 18.1326 1.46179C18.3313 1.63054 18.6542 1.53672 18.8511 1.61892C19.047 1.65783 19.2448 1.78331 19.3766 1.86696C19.5735 1.94916 19.8343 1.98663 20.0263 1.85243C20.2183 1.71823 20.4123 1.67059 20.6731 1.70805C20.934 1.74552 21.1318 1.871 21.3916 1.86518C21.5866 1.86082 21.8445 1.76845 22.0394 1.76409C22.2343 1.75973 22.4951 1.79719 22.692 1.87939C22.8888 1.96159 22.9528 1.91686 23.1468 1.86922C23.2757 1.82303 23.4706 1.81867 23.5366 1.86049C23.9962 2.06672 24.6449 2.0089 25.1045 2.21512C25.3673 2.33915 25.6912 2.2886 25.9501 2.23951C26.144 2.19187 26.3351 2.01439 26.53 2.01003C26.7249 2.00567 26.9227 2.13114 27.1186 2.17006C27.3135 2.1657 27.4415 2.07624 27.6344 1.98532C27.8274 1.8944 27.8294 1.98096 27.8313 2.06751C27.8342 2.19735 27.9001 2.23918 28.0272 2.10643C28.0902 2.01842 28.0243 1.9766 28.2851 2.01406C29.0027 2.12791 29.7183 2.1552 30.4979 2.13776C30.6928 2.1334 30.8218 2.08721 31.0196 2.21269C31.2184 2.38144 31.4812 2.50547 31.8021 2.32508C31.9951 2.23416 32.0668 2.53566 32.2579 2.35819C32.3209 2.27017 32.5226 2.56877 32.7127 2.34801C33.2392 2.63934 33.7551 2.45459 34.2738 2.39969C34.4688 2.39532 34.7888 2.17166 34.7315 2.51935C35.1902 2.68229 35.5848 2.88996 36.0435 3.05291C36.1085 3.05145 36.2374 3.00527 36.3024 3.00381C36.3014 2.96053 36.2995 2.87398 36.2336 2.83215C35.7157 2.93034 35.7681 2.36625 35.2513 2.50772C35.2503 2.46444 35.2493 2.42116 35.3133 2.37643C35.4394 2.2004 35.6382 2.36916 35.7681 2.36625C35.8981 2.36335 36.0251 2.2306 36.1531 2.14114C36.219 2.18296 36.285 2.22479 36.22 2.22624C36.221 2.26952 36.1579 2.35753 36.0939 2.40226C36.0309 2.49028 36.0328 2.57684 35.9688 2.62157C36.0988 2.61866 36.2297 2.65903 36.2937 2.6143C36.6176 2.56375 36.9424 2.55649 37.1315 2.29245C37.5872 2.32555 37.978 2.36011 38.4347 2.4365C38.4997 2.43504 38.5666 2.52015 38.5666 2.52015C38.8265 2.51433 39.1484 2.37723 39.2803 2.46088C39.3472 2.54598 39.6071 2.54017 39.867 2.53436C40.1268 2.52854 40.1841 2.18085 40.6417 2.30052C40.8376 2.33944 41.0946 2.20378 41.3535 2.15469C41.4185 2.15324 41.4834 2.15178 41.5484 2.15033C41.5494 2.19361 41.5503 2.23689 41.5513 2.28017C41.4873 2.3249 41.4892 2.41146 41.4252 2.45619C41.4902 2.45474 41.6201 2.45183 41.6851 2.45038C41.9411 2.27145 42.2698 2.4373 42.5937 2.38675C42.5937 2.38675 42.5937 2.38675 42.5287 2.3882C42.5297 2.43148 42.5307 2.47476 42.5956 2.47331C42.5956 2.47331 42.6606 2.47185 42.7256 2.4704C42.7246 2.42712 42.6596 2.42857 42.5937 2.38675C42.7178 2.12417 43.1784 2.37367 43.3685 2.15291C43.3685 2.15291 43.5644 2.19183 43.4994 2.19328C43.5081 2.58279 43.8911 2.27112 44.087 2.31004C44.2829 2.34896 44.5389 2.17002 44.6048 2.21185C44.9345 2.42098 45.2594 2.41371 45.5192 2.4079C45.5842 2.40644 45.6511 2.49155 45.6521 2.53483C45.655 2.66467 45.5929 2.79596 45.5968 2.96907C45.5968 2.96907 45.5968 2.96907 45.5958 2.92579C45.5309 2.92725 45.4659 2.9287 45.4669 2.97198C45.4669 2.97198 45.4678 3.01526 45.4688 3.05854C45.5338 3.05708 45.5328 3.01381 45.5968 2.96907C45.6598 2.88106 45.7888 2.83487 45.8528 2.79014C45.9779 2.57084 46.4288 2.38755 46.8205 2.46538C46.8205 2.46538 46.8855 2.46393 46.8865 2.50721C47.6671 2.53305 47.6671 2.53305 47.9948 2.65562C48.1917 2.73781 48.2566 2.73636 48.3837 2.60362C48.7017 2.29339 49.2884 2.36687 49.7403 2.22686C49.7403 2.22686 49.8721 2.31051 49.8731 2.35379C49.9468 2.74185 49.9468 2.74185 50.5325 2.77205C50.6624 2.76914 50.7933 2.80951 50.9233 2.8066C50.9882 2.80515 51.0513 2.71714 51.0503 2.67386C51.0493 2.63058 51.0484 2.5873 50.9824 2.54547C50.8515 2.5051 50.7225 2.55129 50.5916 2.51092C50.4617 2.51382 50.3948 2.42872 50.3298 2.43017C50.4588 2.38399 50.5218 2.29597 50.6508 2.24979C50.7158 2.24833 51.3053 2.45165 51.3063 2.49493C51.3732 2.58003 51.4401 2.66514 51.506 2.70696C51.6369 2.74733 51.8309 2.6997 51.9608 2.69679C51.9589 2.61023 51.9569 2.52367 51.956 2.48039C51.955 2.43711 51.8891 2.39529 51.8881 2.35201C51.8871 2.30873 51.9502 2.22072 52.0142 2.17598C52.0791 2.17453 52.275 2.21345 52.275 2.21345C52.2808 2.47312 52.4088 2.38366 52.6677 2.33457C52.7967 2.28838 53.1206 2.23783 53.1274 2.54079C53.0624 2.54224 53.0614 2.49896 52.9964 2.50041C52.9315 2.50187 52.8015 2.50477 52.7366 2.50623C52.7375 2.54951 52.7385 2.59279 52.7385 2.59279C52.8684 2.58988 52.9334 2.58843 53.1274 2.54079C53.1904 2.45277 53.3194 2.40659 53.4483 2.3604C53.6413 2.26948 53.7683 2.13674 53.7751 2.43969C53.7761 2.48297 53.779 2.61281 53.779 2.61281C53.9758 2.69501 53.7887 3.0456 54.1765 2.95032C54.4345 2.85795 54.1717 2.73393 54.1698 2.64737C54.1678 2.56081 54.2939 2.38479 54.4878 2.33715C54.6168 2.29096 54.8136 2.37316 55.0095 2.41208C54.8204 2.67611 55.4672 2.53174 55.4778 3.00781C55.8648 2.86925 55.4119 2.96598 55.344 2.8376C55.3431 2.79432 54.7613 2.93724 54.7613 2.93724C54.8272 2.97907 54.9581 3.01944 55.088 3.01653C55.2839 3.05545 55.3498 3.09727 55.2878 3.22857C55.2887 3.27185 55.4197 3.31222 55.4846 3.31076C55.6146 3.30786 55.6776 3.21984 55.4778 3.00781ZM73.2113 5.38231L73.2103 5.33903C73.1454 5.34049 73.0804 5.34194 73.0814 5.38522C73.0814 5.38522 73.0823 5.4285 73.0833 5.47178C73.1483 5.47033 73.1473 5.42705 73.3383 5.24957C73.2734 5.25102 73.2743 5.2943 73.2094 5.29576C73.2103 5.33903 73.2753 5.33758 73.2763 5.38086C73.3403 5.33613 73.3403 5.33613 73.4043 5.2914C73.4033 5.24812 73.3374 5.20629 73.2113 5.38231ZM159.173 3.80551C159.108 3.80696 159.109 3.85024 159.044 3.85169C159.045 3.89497 159.11 3.89352 159.111 3.9368C159.175 3.89206 159.175 3.89206 159.239 3.84733C159.239 3.84733 159.173 3.80551 159.047 3.98153L159.046 3.93825C158.981 3.9397 158.916 3.94116 158.917 3.98444C158.917 3.98444 158.918 4.02772 158.919 4.071C158.918 4.02772 158.983 4.02626 159.173 3.80551ZM117.684 5.90286C117.619 5.90431 117.62 5.94759 117.555 5.94905C117.556 5.99233 117.621 5.99087 117.622 6.03415C117.686 5.98942 117.686 5.98942 117.75 5.94469C117.75 5.94469 117.684 5.90286 117.558 6.07889L117.557 6.03561C117.492 6.03706 117.427 6.03851 117.428 6.08179C117.428 6.08179 117.429 6.12507 117.43 6.16835C117.494 6.12362 117.493 6.08034 117.684 5.90286ZM61.1523 6.77793C61.0873 6.77939 61.0883 6.82267 61.0233 6.82412C61.0243 6.8674 61.0893 6.86595 61.0902 6.90922C61.1542 6.86449 61.1542 6.86449 61.2182 6.81976C61.2182 6.81976 61.1523 6.77793 61.0922 6.99578C60.9603 6.91213 60.9603 6.91213 60.9603 6.91213C60.8953 6.91359 60.7654 6.91649 60.7004 6.91795C60.7014 6.96123 60.7024 7.0045 60.7024 7.0045C60.7683 7.04633 60.8323 7.0016 61.1523 6.77793ZM126.848 5.87103C126.784 5.91576 126.719 5.91721 126.655 5.96195C126.721 6.00377 126.722 6.04705 126.787 6.0456C126.852 6.04414 126.982 6.04124 127.046 5.9965C126.98 5.95468 126.914 5.91285 126.456 5.79319C126.457 5.83647 126.522 5.83502 126.523 5.8783C126.588 5.87684 126.587 5.83356 126.652 5.83211C126.586 5.79028 126.586 5.79028 126.52 5.74846C126.586 5.79028 126.521 5.79174 126.848 5.87103ZM85.1773 2.73305C85.1133 2.77778 85.0493 2.82252 85.186 3.12256C85.0541 3.03891 84.9872 2.95381 84.8553 2.87016C84.7923 2.95817 84.7293 3.04618 84.7322 3.17602C84.7331 3.2193 84.864 3.25967 84.9949 3.30004C85.0599 3.29859 85.1229 3.21058 84.9862 2.91053C84.9843 2.82397 85.0483 2.77924 85.1773 2.73305C85.3072 2.73014 85.4371 2.72724 85.762 2.71997C85.698 2.7647 85.633 2.76616 85.569 2.81089C85.6349 2.85271 85.6359 2.89599 85.7009 2.89454C85.7659 2.89309 85.8958 2.89018 85.9598 2.84545C85.8938 2.80362 85.8289 2.80507 85.568 2.76761C85.5661 2.68105 85.5642 2.59449 85.5622 2.50793C85.4333 2.55412 85.3693 2.59885 85.2403 2.64504C85.1753 2.64649 85.1763 2.68977 85.1773 2.73305ZM63.1053 4.00628C63.2343 3.9601 63.2993 3.95864 63.4282 3.91246C63.3623 3.87063 63.2964 3.82881 63.2314 3.83026C63.1015 3.83317 62.9725 3.87935 62.8425 3.88226C62.9085 3.92409 62.9735 3.92263 63.8132 3.68734C63.6842 3.73353 63.6193 3.73498 63.4903 3.78117C63.5562 3.82299 63.6222 3.86482 63.6871 3.86336C63.8171 3.86046 63.946 3.81427 64.076 3.81136C64.01 3.76954 63.9451 3.77099 63.1053 4.00628ZM136.99 3.04607L136.989 3.00279C136.924 3.00424 136.859 3.0057 136.86 3.04898C136.86 3.04898 136.861 3.09225 136.862 3.13553C136.927 3.13408 136.926 3.0908 137.376 2.86423C137.247 2.91042 137.182 2.91187 137.053 2.95806C137.119 2.99988 137.185 3.04171 137.25 3.04025C137.38 3.03735 137.509 2.99116 137.639 2.98825C137.572 2.90315 137.506 2.86132 136.99 3.04607ZM30.1818 2.53454C30.1158 2.49271 30.1149 2.44943 30.0499 2.45089C29.919 2.41051 29.7241 2.41487 29.728 2.58799C29.7289 2.63127 29.7949 2.6731 29.7958 2.71638C29.9248 2.67019 30.0538 2.624 30.5018 2.31087C30.3728 2.35706 30.3078 2.35851 30.1789 2.4047C30.2448 2.44653 30.3108 2.48835 30.3757 2.4869C30.5057 2.48399 30.6346 2.4378 30.7646 2.4349C30.6986 2.39307 30.6337 2.39453 30.1818 2.53454ZM73.1066 3.60932C72.9757 3.56895 72.9098 3.52712 72.8448 3.52858C72.7799 3.53003 72.7159 3.57476 72.6509 3.57622C72.7178 3.66132 72.7837 3.70315 72.9156 3.7868C72.9796 3.74206 73.0436 3.69733 73.6167 3.1649C73.3559 3.12743 73.0349 3.30782 73.1037 3.47948C73.1047 3.52276 73.1706 3.56459 73.1706 3.56459C73.3646 3.51695 73.4935 3.47076 73.6865 3.37984C73.7515 3.37839 73.7495 3.29183 73.7486 3.24855C73.6826 3.20673 73.6167 3.1649 73.1066 3.60932ZM108.533 3.63944C108.468 3.6409 108.469 3.68418 108.404 3.68563C108.405 3.72891 108.47 3.72745 108.471 3.77073C108.535 3.726 108.535 3.726 108.599 3.68127C108.599 3.68127 108.533 3.63944 108.408 3.85875C108.341 3.77364 108.275 3.73182 108.208 3.64671C108.142 3.60488 108.268 3.42886 108.075 3.51978C107.946 3.56597 107.884 3.69726 107.821 3.78527C108.018 3.86747 108.15 3.95112 108.346 3.99004C108.28 3.94821 108.345 3.94676 108.533 3.63944ZM70.4177 2.54366C70.3528 2.54511 70.3537 2.58839 70.2888 2.58984C70.2897 2.63312 70.3547 2.63167 70.3557 2.67495C70.4197 2.63021 70.4197 2.63021 70.4837 2.58548C70.4837 2.58548 70.4177 2.54366 70.4895 2.84516C70.1608 2.67931 70.0279 2.55238 69.897 2.51201C69.7671 2.51491 69.6391 2.60438 69.5111 2.69384C69.7079 2.77604 69.9048 2.85824 70.1666 2.93898C70.1026 2.98372 70.2306 2.89425 70.4177 2.54366ZM41.7238 7.08271C41.8537 7.0798 41.9187 7.07835 42.0496 7.11872C42.4413 7.19655 42.6973 7.01762 42.9543 6.88197C43.0183 6.83724 42.9514 6.75213 42.8854 6.71031C42.8845 6.66703 42.7555 6.71321 42.6896 6.67139C42.6333 7.06236 42.3046 6.89651 41.9788 6.8605C41.8479 6.82012 41.653 6.82448 41.524 6.87067C41.3941 6.87358 41.332 7.00487 41.268 7.0496C41.3339 7.09143 41.4639 7.08852 41.5298 7.13035C41.5279 7.04379 41.5928 7.04233 41.7238 7.08271ZM72.999 4.60765C72.8012 4.48217 72.6033 4.3567 72.5384 4.35815C72.3435 4.36251 72.0865 4.49816 71.8935 4.58908L71.8945 4.63236C72.0913 4.71456 72.2891 4.84003 72.55 4.8775C72.615 4.87605 72.806 4.69857 72.999 4.60765ZM72.8991 3.05105C72.8342 3.0525 72.7682 3.01068 72.7682 3.01068C72.3823 3.19252 72.2504 3.10887 72.3096 2.84774C72.3697 2.62989 72.1108 2.67898 71.9159 2.68334C71.8509 2.68479 71.7869 2.72953 71.7229 2.77426C72.0507 2.89683 71.9275 3.20269 72.3842 3.27908C72.6441 3.27326 72.839 3.2689 72.8991 3.05105ZM45.6094 3.5317C45.4794 3.53461 45.4145 3.53606 45.2845 3.53897C45.2196 3.54042 45.1546 3.54188 45.0906 3.58661L45.0916 3.62989C45.1614 3.84483 45.7451 3.78847 45.622 4.09433C45.6869 4.09288 45.7509 4.04815 45.8159 4.04669C45.8789 3.95868 46.0069 3.86922 46.07 3.7812C46.069 3.73792 46.0671 3.65137 46.0011 3.60954C45.9342 3.52444 45.7393 3.5288 45.6094 3.5317ZM74.0908 6.92147C73.698 6.80035 73.6282 6.58541 73.6224 6.32574C73.5574 6.32719 73.4934 6.37192 73.4285 6.37338C73.1075 6.55376 73.4382 6.80617 73.3131 7.02547C73.378 7.02402 73.443 7.02256 73.508 7.02111C73.7029 7.01675 73.8318 6.97056 74.0908 6.92147ZM41.689 2.62349C41.4301 2.67259 41.1062 2.72313 40.7174 2.77513C40.9811 2.94244 41.3069 2.97845 41.6279 2.79806C41.6279 2.79806 41.8257 2.92354 41.8907 2.92209C41.9556 2.92063 42.0846 2.87445 42.0836 2.83117C42.0827 2.78789 42.0807 2.70133 42.0148 2.65951C42.0148 2.65951 41.8849 2.66241 41.689 2.62349ZM83.0362 2.91086C83.0372 2.95414 83.0362 2.91086 83.0352 2.86758C83.0973 2.73629 83.0304 2.65118 82.8355 2.65554C82.5756 2.66136 82.6444 2.83302 82.6464 2.91958C82.6483 3.00614 82.7152 3.09124 82.8461 3.13161C82.9121 3.17344 83.042 3.17053 83.1729 3.2109C83.105 3.08252 83.1041 3.03924 83.0362 2.91086ZM143.733 2.28899C143.734 2.33227 143.735 2.37555 143.735 2.37555C143.996 2.41301 144.257 2.45048 144.452 2.44612C144.451 2.40284 144.449 2.31628 144.384 2.31773C144.253 2.27736 144.056 2.19516 143.861 2.19953C143.861 2.19953 143.798 2.28754 143.733 2.28899ZM78.9548 3.52178C78.8908 3.56651 78.8258 3.56797 78.8268 3.61125C78.7647 3.74254 78.7017 3.83055 78.6396 3.96184C78.6406 4.00512 78.7065 4.04694 78.7075 4.09022C78.7715 4.04549 78.8365 4.04404 78.8355 4.00076C78.8976 3.86947 78.9606 3.78146 79.0227 3.65016C79.0217 3.60689 78.9558 3.56506 78.9548 3.52178ZM77.7765 6.05959C77.6447 5.97594 77.6418 5.8461 77.5768 5.84756C77.3809 5.80864 77.2529 5.8981 77.3208 6.02649C77.3227 6.11305 77.3887 6.15487 77.4556 6.23998C77.4536 6.15342 77.5826 6.10723 77.7765 6.05959ZM100.844 2.81554C100.845 2.85882 100.911 2.90064 100.913 2.9872C101.041 2.89774 101.169 2.80827 101.231 2.67698C101.231 2.67698 101.099 2.59333 101.033 2.5515C100.969 2.55296 100.904 2.55441 100.84 2.59914C100.906 2.64097 100.842 2.72898 100.844 2.81554ZM67.6715 4.72684C67.5435 4.81631 67.3496 4.86395 67.6754 4.89996C67.7404 4.8985 67.8034 4.81049 67.8664 4.72248C67.8655 4.6792 67.9295 4.63447 67.8635 4.59264C67.7976 4.55082 67.7317 4.50899 67.6657 4.46716C67.5348 4.42679 67.4059 4.47298 67.5387 4.59991C67.6696 4.64028 67.6706 4.68356 67.6715 4.72684ZM62.0503 3.33707C61.8564 3.38471 61.7924 3.42945 61.7284 3.47418C61.8603 3.55783 61.9272 3.64293 62.0581 3.68331C62.1231 3.68185 62.187 3.63712 62.251 3.59239C62.1841 3.50728 62.1172 3.42218 62.0503 3.33707ZM80.065 6.65791L80.0659 6.70119C80.3258 6.69537 80.5867 6.73284 80.7816 6.72847C80.7806 6.6852 80.7796 6.64192 80.7147 6.64337C80.6487 6.60154 80.5178 6.56117 80.4528 6.56263C80.3229 6.56553 80.1949 6.655 80.065 6.65791ZM75.1264 6.7251C75.1254 6.68182 75.1264 6.7251 75.0624 6.76983C75.0633 6.81311 75.0643 6.85639 75.1303 6.89821C75.2612 6.93858 75.4561 6.93422 75.586 6.93132C75.651 6.92986 75.649 6.84331 75.7121 6.75529C75.6471 6.75675 75.5812 6.71492 75.5162 6.71637C75.3863 6.71928 75.3213 6.72074 75.1264 6.7251ZM56.1925 2.99182C56.0626 2.99473 56.0626 2.99473 55.9976 2.99618C56.0005 3.12602 56.0034 3.25586 56.0053 3.34241C56.0703 3.34096 56.2002 3.33805 56.2652 3.3366C56.2623 3.20676 56.1954 3.12166 56.1925 2.99182ZM61.0069 6.08837C61.1387 6.17202 61.2706 6.25568 61.4025 6.33933C61.4665 6.29459 61.4646 6.20804 61.4636 6.16476C61.5257 6.03347 61.5237 5.94691 61.2638 5.95272C61.1989 5.95417 61.1358 6.04219 61.0069 6.08837ZM141.557 3.8099C141.425 3.68297 141.358 3.59787 141.294 3.6426C141.1 3.69024 140.972 3.77971 140.778 3.82735C140.844 3.86917 140.975 3.90954 141.04 3.90809C141.234 3.86045 141.363 3.81427 141.557 3.8099ZM115.883 3.8647C115.751 3.78105 115.684 3.69595 115.619 3.6974C115.489 3.70031 115.426 3.78832 115.362 3.83305C115.362 3.83305 115.43 3.96144 115.495 3.95998C115.625 3.95708 115.754 3.91089 115.883 3.8647ZM68.0255 3.11679C68.1574 3.20044 68.2233 3.24226 68.3542 3.28264C68.4192 3.28118 68.4832 3.23645 68.5472 3.19172C68.4813 3.14989 68.4144 3.06479 68.3484 3.02296C68.2825 2.98114 68.2195 3.06915 68.0255 3.11679ZM69.9939 6.83993C69.862 6.75627 69.7951 6.67117 69.7301 6.67262C69.6002 6.67553 69.5362 6.72026 69.4731 6.80828C69.4731 6.80828 69.541 6.93666 69.606 6.93521C69.7359 6.9323 69.7999 6.88757 69.9939 6.83993ZM152.267 6.03844C152.138 6.04134 152.009 6.08753 151.944 6.08898C152.01 6.17409 152.143 6.30102 152.207 6.25629C152.337 6.25338 152.465 6.16391 152.594 6.11773C152.399 6.12209 152.333 6.08026 152.267 6.03844ZM114.184 3.4697C114.38 3.50862 114.445 3.50717 114.575 3.50426C114.64 3.50281 114.769 3.45662 114.834 3.45517C114.768 3.41334 114.701 3.32824 114.636 3.32969C114.57 3.28787 114.505 3.28932 114.441 3.33405C114.376 3.33551 114.312 3.38024 114.184 3.4697ZM52.751 6.05658C52.8829 6.14023 52.9488 6.18205 53.0797 6.22243C53.1447 6.22097 53.2087 6.17624 53.2727 6.13151C53.2068 6.08968 53.1398 6.00458 53.0739 5.96275C53.0089 5.9642 52.88 6.01039 52.751 6.05658ZM80.0717 6.96086C79.9437 7.05033 79.8797 7.09506 79.7517 7.18452L79.8187 7.26963C80.0126 7.22199 80.1416 7.1758 80.3355 7.12816C80.2696 7.08634 80.2036 7.04451 80.0717 6.96086ZM60.4969 3.63163C60.43 3.54653 60.3641 3.5047 60.2981 3.46288C60.1691 3.50906 60.0411 3.59853 60.0421 3.64181C60.0441 3.72837 60.175 3.76874 60.3068 3.85239C60.3049 3.76583 60.3689 3.7211 60.4969 3.63163ZM81.0405 6.67938C81.1714 6.71975 81.2373 6.76158 81.3682 6.80195C81.4332 6.8005 81.5631 6.79759 81.6271 6.75286C81.4952 6.66921 81.2984 6.58701 81.1665 6.50336C81.1685 6.58992 81.1045 6.63465 81.0405 6.67938ZM36.1821 6.34067C36.248 6.3825 36.3149 6.4676 36.3159 6.51088C36.3799 6.46615 36.3779 6.37959 36.377 6.33631C36.375 6.24975 36.3091 6.20793 36.3071 6.12137C36.3081 6.16465 36.2451 6.25266 36.1821 6.34067ZM71.0702 5.56012C71.0033 5.47501 70.8724 5.43464 70.8055 5.34954C70.7415 5.39427 70.6785 5.48228 70.6795 5.52556C70.7454 5.56739 70.8763 5.60776 70.9422 5.64958C71.0062 5.60485 71.0702 5.56012 71.0702 5.56012ZM144.359 4.09364C144.292 4.00853 144.291 3.96525 144.29 3.92197C144.161 3.96816 144.033 4.05762 143.904 4.10381C143.97 4.14564 144.036 4.18746 144.036 4.18746C144.165 4.14128 144.229 4.09654 144.359 4.09364ZM54.3035 5.71874C54.2395 5.76347 54.1755 5.8082 54.1124 5.89621C54.1134 5.93949 54.1144 5.98277 54.1803 6.0246C54.3093 5.97841 54.4373 5.88895 54.5663 5.84276C54.4354 5.80239 54.4354 5.80239 54.3035 5.71874ZM70.7561 3.1423C70.6912 3.14375 70.6272 3.18848 70.6272 3.18848C70.6291 3.27504 70.696 3.36015 70.7619 3.40197C70.7619 3.40197 70.9559 3.35433 71.0209 3.35288C70.889 3.26923 70.823 3.2274 70.7561 3.1423ZM98.2398 2.61401C98.1729 2.5289 98.172 2.48562 98.171 2.44234C98.042 2.48853 97.914 2.57799 97.7851 2.62418C97.851 2.66601 97.9169 2.70783 97.9169 2.70783C98.0459 2.66165 98.1099 2.61691 98.2398 2.61401ZM66.2868 6.74966C66.2228 6.79439 66.1597 6.88241 66.1607 6.92569C66.1617 6.96896 66.2276 7.01079 66.2286 7.05407C66.3566 6.9646 66.4206 6.91987 66.5486 6.83041C66.4826 6.78858 66.4177 6.79003 66.2868 6.74966ZM104.484 5.72186C104.226 5.77095 104.096 5.77386 103.966 5.77677C104.032 5.81859 104.098 5.86042 104.163 5.85896C104.292 5.85606 104.422 5.85315 104.552 5.85024C104.486 5.80842 104.485 5.76514 104.484 5.72186ZM65.1068 3.39859C65.0418 3.40005 64.9778 3.44478 64.9778 3.44478C64.9797 3.53134 65.0466 3.61644 65.1126 3.65827C65.1126 3.65827 65.3065 3.61063 65.3715 3.60918C65.3056 3.56735 65.1737 3.4837 65.1068 3.39859ZM85.9636 5.91972C85.8967 5.83462 85.8947 5.74806 85.8278 5.66296C85.7638 5.70769 85.6998 5.75242 85.7018 5.83898C85.7037 5.92554 85.7706 6.01064 85.7725 6.0972C85.8356 6.00919 85.8996 5.96446 85.9636 5.91972ZM57.2911 5.6086C57.1621 5.65478 57.0971 5.65624 57.0322 5.65769C57.0991 5.74279 57.2309 5.82644 57.2978 5.91155C57.3618 5.86682 57.4258 5.82208 57.4258 5.82208C57.4239 5.73553 57.357 5.65042 57.2911 5.6086ZM120.901 4.44525C120.834 4.36014 120.703 4.31977 120.637 4.23467C120.573 4.2794 120.509 4.36741 120.51 4.41069C120.576 4.45252 120.707 4.49289 120.773 4.53471C120.772 4.49144 120.836 4.4467 120.901 4.44525ZM49.1331 7.04684C49.199 7.08866 49.265 7.13049 49.3959 7.17086C49.4608 7.16941 49.5258 7.16796 49.5898 7.12322C49.5229 7.03812 49.391 6.95447 49.3241 6.86936C49.2601 6.91409 49.1961 6.95883 49.1331 7.04684ZM81.2297 3.51419C81.1017 3.60365 81.0377 3.64838 80.9097 3.73785C80.9746 3.7364 81.0406 3.77822 81.0406 3.77822C81.1046 3.73349 81.2335 3.6873 81.2975 3.64257C81.2966 3.59929 81.2306 3.55746 81.2297 3.51419ZM127.831 6.23874C127.767 6.28347 127.704 6.37148 127.705 6.41476C127.706 6.45804 127.772 6.49987 127.773 6.54315C127.901 6.45368 127.965 6.40895 128.093 6.31948C127.962 6.27911 127.962 6.27911 127.831 6.23874ZM81.0163 5.5974C81.0832 5.68251 81.0851 5.76906 81.152 5.85417C81.216 5.80944 81.28 5.7647 81.2781 5.67815C81.2761 5.59159 81.2092 5.50648 81.2073 5.41992C81.0793 5.50939 81.0803 5.55267 81.0163 5.5974ZM62.1879 6.58156C62.123 6.58301 62.059 6.62775 62.059 6.62775C62.0609 6.7143 62.1278 6.79941 62.1937 6.84123C62.1937 6.84123 62.3877 6.79359 62.4526 6.79214C62.3857 6.70704 62.2548 6.66666 62.1879 6.58156ZM120.87 5.96147C121.002 6.04513 121.068 6.08695 121.2 6.1706C121.199 6.12732 121.263 6.08259 121.263 6.08259C121.197 6.04077 121.13 5.95566 121.064 5.91383C121.064 5.91383 120.935 5.96002 120.87 5.96147ZM122.942 2.66757C123.008 2.75267 123.009 2.79595 123.075 2.83778C123.203 2.74831 123.267 2.70358 123.395 2.61411C123.33 2.61557 123.264 2.57374 123.264 2.57374C123.134 2.57665 123.07 2.62138 122.942 2.66757ZM149.629 1.42097C149.631 1.50753 149.698 1.59264 149.699 1.63591C149.763 1.59118 149.826 1.50317 149.825 1.45989C149.824 1.41661 149.822 1.33005 149.821 1.28677C149.757 1.33151 149.693 1.37624 149.629 1.42097ZM68.9369 6.08416C69.0659 6.03797 69.1309 6.03652 69.1949 5.99178C69.063 5.90813 68.9971 5.86631 68.8652 5.78266C68.8661 5.82594 68.8021 5.87067 68.8021 5.87067C68.805 6.00051 68.871 6.04233 68.9369 6.08416ZM102.595 5.50434C102.593 5.41778 102.526 5.33267 102.525 5.28939C102.461 5.33413 102.398 5.42214 102.399 5.46542C102.4 5.5087 102.402 5.59526 102.403 5.63854C102.467 5.5938 102.531 5.54907 102.595 5.50434ZM122.078 4.76532C122.21 4.84897 122.276 4.8908 122.408 4.97445C122.407 4.93117 122.471 4.88644 122.471 4.88644C122.405 4.84461 122.338 4.7595 122.272 4.71768C122.207 4.71913 122.143 4.76387 122.078 4.76532ZM78.6163 5.8243C78.5523 5.86903 78.4883 5.91376 78.4893 5.95704C78.4902 6.00032 78.5571 6.08543 78.5581 6.12871C78.6221 6.08397 78.6871 6.08252 78.6861 6.03924C78.6851 5.99596 78.6832 5.9094 78.6163 5.8243ZM79.2524 5.20386C79.2544 5.29041 79.1904 5.33515 79.1913 5.37843C79.1913 5.37843 79.2573 5.42025 79.3222 5.4188C79.3862 5.37406 79.3843 5.28751 79.3833 5.24423C79.3843 5.28751 79.3184 5.24568 79.2524 5.20386ZM82.3952 3.3149C82.3972 3.40146 82.3332 3.4462 82.3341 3.48948C82.3341 3.48948 82.4001 3.5313 82.465 3.52985C82.529 3.48511 82.5271 3.39856 82.5261 3.35528C82.5911 3.35382 82.4602 3.31345 82.3952 3.3149ZM85.3381 7.01624C85.2741 7.06097 85.2091 7.06243 85.1451 7.10716C85.2111 7.14898 85.277 7.19081 85.4069 7.1879C85.4719 7.18645 85.5359 7.14172 85.6009 7.14026C85.469 7.05661 85.404 7.05807 85.3381 7.01624ZM85.3972 6.75511C85.3963 6.71183 85.3303 6.67001 85.3284 6.58345C85.2644 6.62818 85.1994 6.62963 85.2004 6.67291C85.2014 6.71619 85.2683 6.8013 85.2692 6.84458C85.3342 6.84312 85.3982 6.79839 85.3972 6.75511ZM85.7813 6.48671C85.7813 6.48671 85.7182 6.57473 85.7192 6.61801C85.7842 6.61655 85.8501 6.65838 85.8501 6.65838C85.9151 6.65692 85.9791 6.61219 86.0431 6.56746C85.9771 6.52563 85.9122 6.52709 85.7813 6.48671ZM86.6511 4.69192C86.4572 4.73956 86.4572 4.73956 86.3922 4.74101C86.4581 4.78284 86.5241 4.82466 86.5891 4.82321C86.654 4.82175 86.719 4.8203 86.783 4.77557C86.653 4.77848 86.6521 4.7352 86.6511 4.69192ZM87.6063 3.80453C87.6063 3.80453 87.5432 3.89254 87.5442 3.93582C87.6092 3.93437 87.6751 3.97619 87.6751 3.97619C87.7401 3.97474 87.8041 3.93001 87.8681 3.88527C87.8031 3.88673 87.7372 3.8449 87.6063 3.80453ZM88.7447 2.39343C88.8087 2.3487 88.8737 2.34724 88.9377 2.30251C88.8718 2.26069 88.8058 2.21886 88.6759 2.22177C88.6109 2.22322 88.5469 2.26795 88.482 2.26941C88.6129 2.30978 88.6788 2.35161 88.7447 2.39343ZM89.7231 2.54475C89.6582 2.5462 89.5942 2.59093 89.4642 2.59384C89.5302 2.63566 89.5311 2.67894 89.5961 2.67749C89.6611 2.67604 89.79 2.62985 89.855 2.6284C89.854 2.58512 89.7891 2.58657 89.7231 2.54475ZM89.2217 6.27984C89.2876 6.32166 89.2896 6.40822 89.2896 6.40822C89.3545 6.40677 89.4845 6.40386 89.5485 6.35913C89.5475 6.31585 89.4816 6.27402 89.4816 6.27402C89.4166 6.27548 89.3516 6.27693 89.2217 6.27984ZM89.7483 3.67C89.8142 3.71183 89.8162 3.79839 89.8162 3.79839C89.8812 3.79694 90.0111 3.79403 90.0751 3.7493C90.0741 3.70602 90.0082 3.66419 90.0082 3.66419C90.0082 3.66419 89.8782 3.6671 89.7483 3.67ZM31.7894 7.56477C31.8534 7.52004 31.9183 7.51859 31.9823 7.47385C31.9164 7.43203 31.8504 7.3902 31.7205 7.39311C31.6555 7.39456 31.5915 7.4393 31.5266 7.44075C31.5925 7.48258 31.7234 7.52295 31.7894 7.56477ZM32.6059 6.29078C32.4119 6.33842 32.4119 6.33842 32.347 6.33987C32.4129 6.3817 32.4788 6.42353 32.5438 6.42207C32.6088 6.42062 32.6737 6.41916 32.7377 6.37443C32.6728 6.37588 32.6068 6.33406 32.6059 6.29078ZM91.8835 6.13368C91.8185 6.13514 91.7535 6.13659 91.7535 6.13659C91.7545 6.17987 91.7564 6.26643 91.7574 6.30971L91.8873 6.3068C91.8864 6.26352 91.8854 6.22024 91.8835 6.13368ZM36.1792 3.30967C36.1792 3.30967 36.1162 3.39769 36.1172 3.44097C36.1821 3.43951 36.2481 3.48134 36.2481 3.48134C36.313 3.47988 36.377 3.43515 36.4411 3.39042C36.3761 3.39187 36.3101 3.35005 36.1792 3.30967ZM112.463 2.07928C112.463 2.07928 112.594 2.11966 112.659 2.1182C112.658 2.07492 112.722 2.03019 112.722 2.03019C112.721 1.98691 112.655 1.94509 112.589 1.90326C112.59 1.94654 112.591 1.98982 112.463 2.07928ZM39.4674 5.01144C39.4034 5.05618 39.3394 5.10091 39.3403 5.14419C39.3413 5.18747 39.4082 5.27257 39.4092 5.31585C39.4732 5.27112 39.5382 5.26967 39.5372 5.22639C39.5352 5.13983 39.4683 5.05472 39.4674 5.01144ZM39.7874 4.78778C39.8533 4.82961 39.8553 4.91617 39.8553 4.91617C39.9202 4.91471 40.0502 4.9118 40.1142 4.86707C40.1132 4.82379 40.0473 4.78197 40.0473 4.78197C39.9823 4.78342 39.9173 4.78487 39.7874 4.78778ZM113.913 5.85733C113.979 5.89915 113.981 5.98571 113.981 5.98571C114.046 5.98426 114.175 5.98135 114.239 5.93662C114.239 5.89334 114.173 5.85151 114.173 5.85151C114.108 5.85297 113.978 5.85588 113.913 5.85733ZM41.4474 6.35277C41.4464 6.30949 41.3805 6.26767 41.3786 6.18111C41.3146 6.22584 41.2496 6.2273 41.2506 6.27058C41.2515 6.31385 41.3185 6.39896 41.3194 6.44224C41.3194 6.44224 41.3844 6.44079 41.4474 6.35277ZM121.517 5.8171C121.583 5.85893 121.585 5.94549 121.585 5.94549C121.65 5.94403 121.78 5.94113 121.844 5.89639C121.843 5.85311 121.777 5.81129 121.777 5.81129C121.777 5.81129 121.647 5.81419 121.517 5.8171ZM126.994 3.65943C126.994 3.65943 127.125 3.6998 127.19 3.69835C127.189 3.65507 127.253 3.61033 127.253 3.61033C127.252 3.56706 127.186 3.52523 127.12 3.4834C127.055 3.48486 127.056 3.52814 126.994 3.65943ZM127.864 4.76579C127.929 4.80762 127.931 4.89417 127.931 4.89417C127.996 4.89272 128.126 4.88981 128.19 4.84508C128.189 4.8018 128.123 4.75998 128.123 4.75998C128.122 4.7167 127.993 4.76288 127.864 4.76579ZM133.06 1.70507C133.126 1.74689 133.192 1.78872 133.257 1.78727C133.322 1.78581 133.451 1.73963 133.516 1.73817C133.45 1.69635 133.449 1.65307 133.384 1.65452C133.255 1.70071 133.125 1.70361 133.06 1.70507ZM51.3868 3.18594C51.3189 3.05756 51.3189 3.05756 51.3179 3.01428C51.2539 3.05901 51.1899 3.10374 51.1909 3.14702C51.1918 3.1903 51.1928 3.23358 51.2588 3.27541C51.3228 3.23067 51.3868 3.18594 51.3868 3.18594ZM52.2924 2.99247C52.0985 3.04011 52.0985 3.04011 52.0335 3.04157C52.0995 3.08339 52.1654 3.12522 52.2304 3.12377C52.2954 3.12231 52.3603 3.12086 52.4243 3.07613C52.3593 3.07758 52.3584 3.0343 52.2924 2.99247ZM53.9873 6.11552C53.9873 6.11552 53.9243 6.20353 53.9253 6.24681C53.9903 6.24536 54.0562 6.28718 54.0562 6.28718C54.1212 6.28573 54.1852 6.24099 54.2492 6.19626C54.1842 6.19772 54.1183 6.15589 53.9873 6.11552ZM147.336 6.40858C147.335 6.3653 147.269 6.32348 147.267 6.23692C147.203 6.28165 147.138 6.28311 147.139 6.32638C147.14 6.36966 147.207 6.45477 147.208 6.49805C147.208 6.49805 147.272 6.45332 147.336 6.40858ZM148.68 2.56803C148.615 2.56949 148.551 2.61422 148.421 2.61713C148.487 2.65895 148.488 2.70223 148.553 2.70078C148.618 2.69933 148.747 2.65314 148.812 2.65169C148.812 2.65169 148.746 2.60986 148.68 2.56803ZM153.174 5.88825C153.044 5.89116 152.978 5.84933 152.913 5.85079C152.913 5.85079 152.849 5.89552 152.85 5.9388C152.916 5.98062 153.046 5.97772 153.111 5.97626C153.046 5.97772 153.11 5.93298 153.174 5.88825ZM157.977 5.56429C157.847 5.5672 157.781 5.52537 157.716 5.52683C157.716 5.52683 157.652 5.57156 157.653 5.61484C157.719 5.65667 157.849 5.65376 157.914 5.6523C157.849 5.65376 157.913 5.60903 157.977 5.56429ZM158.925 4.37395C158.795 4.37686 158.729 4.33503 158.665 4.33649C158.665 4.33649 158.601 4.38122 158.601 4.4245C158.667 4.46632 158.797 4.46342 158.862 4.46196C158.862 4.46196 158.926 4.41723 158.925 4.37395ZM57.1126 6.3487C56.9827 6.35161 56.9167 6.30978 56.8518 6.31124C56.8518 6.31124 56.7878 6.35597 56.7887 6.39925C56.8547 6.44108 56.9846 6.43817 57.0496 6.43671C57.0496 6.43671 57.0486 6.39343 57.1126 6.3487ZM58.0629 5.24492C57.9989 5.28965 57.9349 5.33438 57.9359 5.37766C57.9369 5.42094 58.0038 5.50605 58.0048 5.54933C58.0688 5.50459 58.1337 5.50314 58.1328 5.45986C58.0659 5.37476 58.0639 5.2882 58.0629 5.24492ZM59.117 5.87085C59.1189 5.95741 59.0549 6.00214 59.0559 6.04542C59.0559 6.04542 59.1218 6.08725 59.1868 6.08579C59.2508 6.04106 59.2488 5.9545 59.2479 5.91122C59.2479 5.91122 59.1829 5.91268 59.117 5.87085ZM60.1138 6.84447C60.0498 6.8892 59.9848 6.89066 59.9208 6.93539C59.9867 6.97721 60.0527 7.01904 60.1826 7.01613C60.2476 7.01468 60.3116 6.96995 60.3765 6.96849C60.3106 6.92667 60.1797 6.88629 60.1138 6.84447ZM202.118 5.78915C201.924 5.83679 201.924 5.83679 201.859 5.83825C201.925 5.88007 201.991 5.9219 202.056 5.92044C202.121 5.91899 202.186 5.91754 202.25 5.8728C202.119 5.83243 202.118 5.78915 202.118 5.78915ZM62.3645 2.85373C62.2346 2.85664 62.1687 2.81482 62.1037 2.81627C62.1037 2.81627 62.0397 2.861 62.0407 2.90428C62.1066 2.94611 62.2365 2.9432 62.3015 2.94175C62.3025 2.98502 62.3015 2.94175 62.3645 2.85373ZM212.766 5.24782C212.702 5.29255 212.572 5.29546 212.572 5.29546C212.573 5.33874 212.575 5.42529 212.641 5.46712C212.706 5.46567 212.77 5.42093 212.77 5.42093C212.769 5.37765 212.767 5.2911 212.766 5.24782ZM61.9775 5.89345C62.0415 5.84872 62.1065 5.84727 62.1705 5.80253C62.1046 5.76071 62.0386 5.71888 61.9087 5.72179C61.8437 5.72324 61.7797 5.76798 61.7148 5.76943C61.8457 5.8098 61.9116 5.85163 61.9775 5.89345ZM64.6326 2.54318C64.5686 2.58792 64.5046 2.63265 64.5056 2.67593C64.5066 2.71921 64.5735 2.80431 64.5744 2.84759C64.6384 2.80286 64.7034 2.80141 64.7024 2.75813C64.7005 2.67157 64.6336 2.58646 64.6326 2.54318ZM64.7847 6.43686C64.6548 6.43977 64.5889 6.39794 64.5239 6.39939C64.5239 6.39939 64.4599 6.44413 64.4609 6.48741C64.5268 6.52923 64.6567 6.52632 64.7217 6.52487C64.6567 6.52632 64.7207 6.48159 64.7847 6.43686ZM66.6728 3.66666C66.6049 3.53828 66.6049 3.53828 66.604 3.495C66.54 3.53973 66.476 3.58446 66.4769 3.62774C66.4779 3.67102 66.4789 3.7143 66.5448 3.75613C66.5438 3.71285 66.6078 3.66812 66.6728 3.66666ZM67.5125 3.43137C67.4447 3.30299 67.4447 3.30299 67.4437 3.25971C67.3797 3.30444 67.3157 3.34917 67.3167 3.39245C67.3176 3.43573 67.3186 3.47901 67.3845 3.52084C67.3836 3.47756 67.4476 3.43282 67.5125 3.43137ZM68.5442 5.96304C68.4143 5.96595 68.3483 5.92412 68.2834 5.92558C68.2834 5.92558 68.2194 5.97031 68.2203 6.01359C68.2863 6.05541 68.4162 6.05251 68.4812 6.05105C68.4812 6.05105 68.4802 6.00777 68.5442 5.96304ZM72.7022 5.87001C72.5723 5.87292 72.5063 5.8311 72.4414 5.83255C72.4414 5.83255 72.3774 5.87728 72.3783 5.92056C72.4443 5.96239 72.5742 5.95948 72.6392 5.95803C72.6392 5.95803 72.6382 5.91475 72.7022 5.87001ZM28.9104 6.71987C28.8454 6.72132 28.8464 6.7646 28.7814 6.76605L28.8474 6.80788C28.9123 6.80642 28.9123 6.80642 28.9763 6.76169C28.9114 6.76315 28.9104 6.71987 28.9104 6.71987ZM35.9464 7.42847C36.0113 7.42701 36.0104 7.38373 36.0754 7.38228L36.0094 7.34046C35.9444 7.34191 35.9444 7.34191 35.8804 7.38664C35.8814 7.42992 35.9464 7.42847 35.9464 7.42847ZM36.6892 5.76641L36.6233 5.72459C36.6242 5.76787 36.5593 5.76932 36.5602 5.8126L36.6262 5.85443C36.6252 5.81115 36.6892 5.76641 36.6892 5.76641ZM37.5687 7.30557C37.5696 7.34885 37.6346 7.3474 37.6356 7.39068L37.6996 7.34594C37.6986 7.30266 37.6986 7.30266 37.6327 7.26084C37.6336 7.30412 37.6336 7.30412 37.5687 7.30557ZM38.6004 6.93608L38.5345 6.89425C38.5354 6.93753 38.4705 6.93899 38.4714 6.98227L38.5374 7.02409C38.5374 7.02409 38.6014 6.97936 38.6004 6.93608ZM38.8516 6.54075C38.7866 6.54221 38.7876 6.58549 38.7226 6.58694L38.7885 6.62876C38.8535 6.62731 38.8535 6.62731 38.9175 6.58258C38.8516 6.54075 38.8516 6.54075 38.8516 6.54075ZM39.0542 6.88263L39.1202 6.92445C39.1851 6.923 39.1851 6.923 39.2491 6.87827L39.1832 6.83644C39.1832 6.83644 39.1182 6.83789 39.0542 6.88263ZM39.3529 5.70682C39.288 5.70827 39.2889 5.75155 39.224 5.75301L39.2899 5.79483C39.3549 5.79338 39.3549 5.79338 39.4189 5.74864C39.4189 5.74864 39.3539 5.7501 39.3529 5.70682ZM40.2237 6.85646L40.1597 6.90119C40.1606 6.94447 40.1606 6.94447 40.2266 6.9863L40.2906 6.94157C40.2246 6.89974 40.2246 6.89974 40.2237 6.85646ZM40.6241 7.32381L40.5582 7.28199C40.5592 7.32527 40.4942 7.32672 40.4952 7.37L40.5611 7.41182C40.5601 7.36854 40.6251 7.36709 40.6241 7.32381ZM43.1251 2.89447L43.0591 2.85264C43.0601 2.89592 42.9951 2.89738 42.9961 2.94066L43.062 2.98248C43.0611 2.9392 43.0611 2.9392 43.1251 2.89447ZM43.6671 3.87826L43.6031 3.923C43.6681 3.92154 43.669 3.96482 43.734 3.96337L43.798 3.91864C43.798 3.91864 43.7321 3.87681 43.6671 3.87826ZM50.228 3.68818L50.162 3.64635C50.163 3.68963 50.098 3.69108 50.099 3.73436L50.1649 3.77619C50.164 3.73291 50.228 3.68818 50.228 3.68818ZM50.5964 5.62847L50.5304 5.58665C50.5314 5.62993 50.4664 5.63138 50.4674 5.67466L50.5334 5.71648C50.5324 5.67321 50.5314 5.62993 50.5964 5.62847ZM51.0792 6.8734C51.0802 6.91667 51.1452 6.91522 51.1462 6.9585L51.2102 6.91377C51.2092 6.87049 51.2092 6.87049 51.1432 6.82866C51.1442 6.87194 51.1442 6.87194 51.0792 6.8734ZM51.696 5.38737C51.697 5.43065 51.762 5.42919 51.7629 5.47247L51.8269 5.42774C51.826 5.38446 51.826 5.38446 51.76 5.34263C51.761 5.38591 51.761 5.38591 51.696 5.38737ZM52.1187 6.85014L52.1847 6.89196C52.1837 6.84868 52.2487 6.84723 52.2477 6.80395L52.1818 6.76213C52.1827 6.80541 52.1827 6.80541 52.1187 6.85014ZM52.9857 4.9255L53.0516 4.96733C53.1166 4.96588 53.1166 4.96588 53.1806 4.92114L53.1147 4.87932C53.1147 4.87932 53.0507 4.92405 52.9857 4.9255ZM55.2548 4.65823C55.2538 4.61495 55.1888 4.61641 55.1879 4.57313L55.1239 4.61786C55.1248 4.66114 55.1248 4.66114 55.1908 4.70297L55.2548 4.65823ZM55.5564 3.61226L55.6204 3.56753C55.5554 3.56899 55.5544 3.52571 55.4895 3.52716L55.4255 3.57189C55.4904 3.57044 55.5554 3.56899 55.5564 3.61226ZM55.9325 5.8988L55.8666 5.85697C55.8676 5.90025 55.8026 5.9017 55.8036 5.94498L55.8695 5.98681C55.8685 5.94353 55.8676 5.90025 55.9325 5.8988ZM56.9323 4.10109L56.8683 4.14582C56.9333 4.14437 56.9343 4.18765 56.9992 4.1862L57.0632 4.14146C56.9983 4.14292 56.9333 4.14437 56.9323 4.10109ZM58.4469 4.97652L58.3829 5.02126C58.3839 5.06453 58.3839 5.06453 58.4499 5.10636L58.5139 5.06163C58.5139 5.06163 58.4479 5.0198 58.4469 4.97652ZM58.6796 6.66005L58.7436 6.61532C58.6786 6.61677 58.6777 6.57349 58.6127 6.57495L58.5487 6.61968C58.6137 6.61823 58.6137 6.61823 58.6796 6.66005ZM41.6317 5.87234L41.5657 5.83052C41.5667 5.8738 41.5017 5.87525 41.5027 5.91853L41.5686 5.96035C41.6326 5.91562 41.6317 5.87234 41.6317 5.87234ZM61.0147 3.53345L60.9488 3.49162C60.9497 3.5349 60.8848 3.53635 60.8857 3.57963L60.9517 3.62146C60.9507 3.57818 61.0147 3.53345 61.0147 3.53345ZM62.9017 3.62113L62.9676 3.66296C63.0326 3.6615 63.0326 3.6615 63.0966 3.61677L63.0307 3.57494C62.9667 3.61968 62.9667 3.61968 62.9017 3.62113ZM63.6163 6.5063L63.5523 6.55104C63.6172 6.54958 63.6182 6.59286 63.6832 6.59141L63.7472 6.54667C63.6822 6.54813 63.6172 6.54958 63.6163 6.5063ZM64.1932 6.14699C64.1942 6.19027 64.2592 6.18881 64.2601 6.23209L64.3242 6.18736C64.3232 6.14408 64.3232 6.14408 64.2572 6.10225C64.2582 6.14553 64.2582 6.14553 64.1932 6.14699ZM64.7761 3.14619L64.7102 3.10436C64.7111 3.14764 64.6462 3.14909 64.6472 3.19237L64.7131 3.2342C64.7121 3.19092 64.7771 3.18947 64.7761 3.14619ZM64.9613 2.70903L64.8973 2.75377C64.9623 2.75231 64.9633 2.79559 65.0282 2.79414L65.0922 2.74941C65.0273 2.75086 65.0273 2.75086 64.9613 2.70903ZM65.6062 2.4781L65.5422 2.52283C65.6072 2.52138 65.6081 2.56466 65.6731 2.56321L65.7371 2.51847C65.6721 2.51993 65.6712 2.47665 65.6062 2.4781ZM66.0028 2.77234L65.9388 2.81707C66.0037 2.81561 66.0047 2.85889 66.0697 2.85744L66.1337 2.81271C66.0687 2.81416 66.0028 2.77234 66.0028 2.77234ZM116.556 1.98771L116.492 2.03244C116.557 2.03099 116.558 2.07427 116.623 2.07281L116.687 2.02808C116.622 2.02954 116.621 1.98626 116.556 1.98771ZM118.454 5.45263L118.52 5.49445C118.585 5.493 118.585 5.493 118.649 5.44827L118.583 5.40644C118.583 5.40644 118.518 5.40789 118.454 5.45263ZM94.2709 2.443C94.27 2.39972 94.205 2.40117 94.204 2.35789L94.14 2.40262C94.141 2.4459 94.141 2.4459 94.2069 2.48773C94.2069 2.48773 94.2069 2.48773 94.2709 2.443ZM119.888 5.63704L119.822 5.59522C119.823 5.6385 119.758 5.63995 119.759 5.68323L119.825 5.72506C119.824 5.68178 119.823 5.6385 119.888 5.63704ZM120.783 2.06635L120.717 2.02452C120.718 2.0678 120.653 2.06925 120.654 2.11253L120.72 2.15436C120.719 2.11108 120.784 2.10963 120.783 2.06635ZM123.454 2.35298L123.389 2.31116C123.39 2.35444 123.325 2.35589 123.326 2.39917L123.391 2.441C123.39 2.39772 123.39 2.35444 123.454 2.35298ZM123.857 2.90689C123.858 2.95017 123.923 2.94872 123.924 2.992L123.988 2.94726C123.987 2.90399 123.987 2.90399 123.921 2.86216C123.857 2.90689 123.857 2.90689 123.857 2.90689ZM124.01 3.94269C124.009 3.89941 123.944 3.90086 123.943 3.85758L123.879 3.90231C123.88 3.94559 123.88 3.94559 123.946 3.98742C124.01 3.94269 124.01 3.94269 124.01 3.94269ZM94.0838 2.79359C94.0848 2.83687 94.1497 2.83542 94.1507 2.8787L94.2147 2.83396C94.2137 2.79068 94.2137 2.79068 94.1478 2.74886C94.0838 2.79359 94.0838 2.79359 94.0838 2.79359ZM93.9353 4.87535L93.8694 4.83353C93.8704 4.87681 93.8054 4.87826 93.8064 4.92154L93.8723 4.96337C93.8714 4.92009 93.8714 4.92009 93.9353 4.87535ZM102.752 3.81209L102.686 3.77026C102.687 3.81354 102.622 3.81499 102.623 3.85827L102.689 3.9001C102.688 3.85682 102.752 3.81209 102.752 3.81209ZM102.956 4.24052L103.022 4.28234C103.087 4.28089 103.087 4.28089 103.151 4.23616L103.085 4.19433C103.02 4.19579 102.956 4.24052 102.956 4.24052ZM97.8024 6.30437C97.7374 6.30582 97.7384 6.3491 97.6734 6.35055L97.7394 6.39238C97.8043 6.39093 97.8043 6.39092 97.8683 6.34619C97.8674 6.30291 97.8674 6.30291 97.8024 6.30437ZM95.0049 6.19375L95.0708 6.23558C95.1358 6.23412 95.1358 6.23412 95.1998 6.18939L95.1338 6.14757C95.0689 6.14902 95.0698 6.1923 95.0049 6.19375ZM78.9975 2.5249L79.0634 2.56673C79.0625 2.52345 79.1274 2.522 79.1264 2.47872L79.0605 2.43689C79.0615 2.48017 79.0615 2.48017 78.9975 2.5249ZM136.07 2.59035L136.136 2.63217C136.201 2.63072 136.201 2.63072 136.265 2.58599L136.199 2.54416C136.134 2.54561 136.069 2.54707 136.07 2.59035ZM96.8028 2.29975L96.8687 2.34158C96.8677 2.2983 96.9327 2.29684 96.9318 2.25356L96.8658 2.21174C96.8668 2.25502 96.8668 2.25502 96.8028 2.29975ZM136.446 1.97572L136.51 1.93098C136.445 1.93244 136.444 1.88916 136.379 1.89061L136.315 1.93534C136.38 1.93389 136.445 1.93244 136.446 1.97572ZM136.72 2.57581C136.721 2.61909 136.786 2.61764 136.787 2.66092L136.851 2.61618C136.85 2.5729 136.85 2.5729 136.784 2.53108C136.72 2.57581 136.72 2.57581 136.72 2.57581ZM77.9269 4.06439C77.9279 4.10767 77.9928 4.10621 77.9938 4.14949L78.0578 4.10476C78.0568 4.06148 78.0568 4.06148 77.9909 4.01965C77.9919 4.06293 77.9919 4.06293 77.9269 4.06439ZM77.3112 2.69253L77.3771 2.73436C77.3762 2.69108 77.4411 2.68963 77.4402 2.64635L77.3742 2.60452C77.3752 2.6478 77.3762 2.69108 77.3112 2.69253ZM140.058 6.5281L140.124 6.56993C140.123 6.52665 140.188 6.52519 140.187 6.48191L140.121 6.44009C140.122 6.48337 140.122 6.48337 140.058 6.5281ZM141.127 2.0009C141.128 2.04418 141.193 2.04272 141.194 2.086L141.258 2.04127C141.257 1.99799 141.257 1.99799 141.191 1.95617C141.191 1.95617 141.126 1.95762 141.127 2.0009ZM141.518 2.03546L141.584 2.07728C141.649 2.07583 141.649 2.07583 141.713 2.0311L141.647 1.98927C141.582 1.99072 141.582 1.99072 141.518 2.03546ZM142.527 3.57171C142.528 3.61498 142.593 3.61353 142.594 3.65681L142.658 3.61208C142.657 3.5688 142.657 3.5688 142.591 3.52697C142.591 3.52697 142.592 3.57025 142.527 3.57171ZM142.837 5.81641L142.903 5.85824C142.968 5.85678 142.968 5.85678 143.032 5.81205L142.966 5.77022C142.901 5.77168 142.902 5.81496 142.837 5.81641ZM143.485 5.71532L143.551 5.75714C143.616 5.75569 143.616 5.75569 143.68 5.71096L143.614 5.66913C143.549 5.67058 143.485 5.71532 143.485 5.71532ZM144.551 3.95944C144.552 4.00272 144.617 4.00126 144.618 4.04454L144.682 3.99981C144.681 3.95653 144.681 3.95653 144.615 3.91471C144.615 3.91471 144.615 3.9147 144.551 3.95944ZM74.2769 6.5276C74.2779 6.57088 74.3429 6.56942 74.3438 6.6127L74.4079 6.56797C74.4069 6.52469 74.4069 6.52469 74.3409 6.48286C74.3409 6.48286 74.3419 6.52614 74.2769 6.5276ZM146.421 6.21254C146.356 6.21399 146.357 6.25727 146.292 6.25872L146.358 6.30055C146.423 6.29909 146.423 6.29909 146.487 6.25436C146.487 6.25436 146.422 6.25582 146.421 6.21254ZM74.7726 2.53283L74.7066 2.491C74.7076 2.53428 74.6426 2.53573 74.6436 2.57901L74.7095 2.62084C74.7745 2.61939 74.7735 2.57611 74.7726 2.53283ZM107.064 1.89697L107 1.94171C107.065 1.94025 107.066 1.98353 107.131 1.98208L107.195 1.93735C107.13 1.9388 107.065 1.94025 107.064 1.89697ZM148.943 5.6365L148.879 5.68123C148.944 5.67978 148.945 5.72306 149.01 5.7216L149.074 5.67687C149.009 5.67832 148.944 5.67978 148.943 5.6365ZM74.1655 4.45165C74.1665 4.49493 74.2314 4.49347 74.2324 4.53675L74.2964 4.49202C74.2954 4.44874 74.2954 4.44874 74.2295 4.40692C74.2295 4.40692 74.2305 4.45019 74.1655 4.45165ZM150.381 5.99403L150.317 6.03876C150.318 6.08204 150.318 6.08204 150.384 6.12387L150.448 6.07914C150.382 6.03731 150.381 5.99403 150.381 5.99403ZM152.29 1.23154L152.354 1.18681C152.289 1.18826 152.288 1.14498 152.223 1.14643L152.159 1.19117C152.224 1.18971 152.224 1.18971 152.29 1.23154ZM74.0792 3.50096L74.1452 3.54278C74.1442 3.49951 74.2092 3.49805 74.2082 3.45477L74.1423 3.41295C74.1432 3.45623 74.1442 3.49951 74.0792 3.50096ZM153.404 1.63962C153.405 1.6829 153.47 1.68145 153.471 1.72473L153.535 1.67999C153.534 1.63671 153.534 1.63671 153.468 1.59489C153.403 1.59634 153.403 1.59634 153.404 1.63962ZM154.924 5.67589L154.86 5.72062C154.861 5.7639 154.861 5.7639 154.927 5.80573L154.991 5.76099C154.99 5.71771 154.989 5.67443 154.924 5.67589ZM73.9367 2.94124L74.0026 2.98306C74.0676 2.98161 74.0676 2.98161 74.1316 2.93688L74.0657 2.89505C74.0657 2.89505 74.0017 2.93978 73.9367 2.94124ZM156.976 1.5164L156.912 1.56113C156.977 1.55968 156.978 1.60295 157.043 1.6015L157.107 1.55677C157.041 1.51494 156.976 1.5164 156.976 1.5164ZM158.671 4.63944C158.606 4.64089 158.607 4.68417 158.542 4.68563L158.608 4.72745C158.673 4.726 158.673 4.726 158.737 4.68127C158.671 4.63944 158.671 4.63944 158.671 4.63944ZM108.387 5.85104L108.323 5.89578C108.388 5.89432 108.389 5.9376 108.454 5.93615L108.518 5.89141C108.453 5.89287 108.387 5.85104 108.387 5.85104ZM160.821 4.85115L160.757 4.89588C160.822 4.89443 160.823 4.93771 160.888 4.93625L160.952 4.89152C160.887 4.89297 160.887 4.89297 160.821 4.85115ZM165.982 3.09025L166.048 3.13208C166.113 3.13063 166.113 3.13063 166.177 3.08589L166.111 3.04407C166.047 3.0888 165.982 3.09025 165.982 3.09025ZM166.646 3.72491L166.71 3.68017C166.645 3.68163 166.644 3.63835 166.579 3.6398L166.515 3.68454C166.515 3.68454 166.581 3.72636 166.646 3.72491ZM166.696 3.07427C166.631 3.07572 166.632 3.119 166.567 3.12045L166.633 3.16228C166.698 3.16082 166.698 3.16082 166.762 3.11609C166.762 3.11609 166.762 3.11609 166.696 3.07427ZM168.212 1.09182L168.148 1.13655C168.149 1.17983 168.149 1.17983 168.215 1.22165L168.279 1.17692C168.278 1.13364 168.212 1.09182 168.212 1.09182ZM170.242 4.64038C170.177 4.64184 170.178 4.68512 170.113 4.68657L170.178 4.7284C170.243 4.72694 170.243 4.72694 170.307 4.68221C170.242 4.68366 170.242 4.68366 170.242 4.64038ZM170.347 3.5555C170.282 3.55695 170.283 3.60023 170.218 3.60168L170.284 3.64351C170.349 3.64206 170.349 3.64205 170.413 3.59732C170.413 3.59732 170.412 3.55404 170.347 3.5555ZM171.022 1.76506L171.086 1.72033C171.021 1.72178 171.02 1.6785 170.955 1.67996L170.891 1.72469C170.956 1.72323 171.021 1.72178 171.022 1.76506ZM176.155 1.65023C176.156 1.69351 176.221 1.69206 176.222 1.73533L176.286 1.6906C176.285 1.64732 176.285 1.64732 176.219 1.6055C176.154 1.60695 176.155 1.65023 176.155 1.65023ZM177.358 3.13884L177.424 3.18066C177.423 3.13739 177.488 3.13593 177.487 3.09265L177.421 3.05083C177.422 3.09411 177.422 3.09411 177.358 3.13884ZM110.745 3.71986L110.681 3.76459C110.682 3.80787 110.682 3.80787 110.748 3.8497L110.812 3.80496C110.812 3.80496 110.746 3.76314 110.745 3.71986ZM179.174 5.86946L179.238 5.82473C179.173 5.82618 179.172 5.7829 179.107 5.78436L179.043 5.82909C179.043 5.82909 179.109 5.87092 179.174 5.86946ZM72.9155 6.68796L72.8515 6.73269C72.8525 6.77597 72.8525 6.77597 72.9184 6.8178L72.9824 6.77306C72.9814 6.72978 72.9165 6.73124 72.9155 6.68796ZM95.4443 2.58995L95.3783 2.54812C95.3793 2.5914 95.3143 2.59286 95.3153 2.63614L95.3812 2.67796C95.4462 2.67651 95.4452 2.63323 95.4443 2.58995ZM73.2114 2.48115L73.2773 2.52298C73.3423 2.52153 73.3423 2.52153 73.4063 2.47679L73.3404 2.43497C73.2754 2.43642 73.2114 2.48115 73.2114 2.48115ZM183.466 5.94664L183.53 5.90191C183.465 5.90337 183.464 5.86009 183.399 5.86154L183.335 5.90627C183.4 5.90482 183.466 5.94664 183.466 5.94664ZM72.2571 6.31298L72.323 6.35481C72.388 6.35335 72.388 6.35335 72.452 6.30862L72.3861 6.26679C72.3211 6.26825 72.2571 6.31298 72.2571 6.31298ZM112.208 2.30149C112.143 2.30295 112.144 2.34623 112.079 2.34768L112.145 2.38951C112.21 2.38805 112.21 2.38805 112.274 2.34332C112.274 2.34332 112.274 2.34332 112.208 2.30149ZM72.3308 6.70104L72.2649 6.65921C72.2658 6.70249 72.2009 6.70395 72.2018 6.74723L72.2678 6.78905C72.3318 6.74432 72.3318 6.74432 72.3308 6.70104ZM98.9583 5.67229L98.8923 5.63047C98.8933 5.67375 98.8283 5.6752 98.8293 5.71848L98.8952 5.76031C98.8952 5.76031 98.9593 5.71557 98.9583 5.67229ZM113.301 1.75743C113.366 1.75598 113.365 1.7127 113.43 1.71125L113.364 1.66942C113.299 1.67087 113.299 1.67087 113.235 1.71561C113.235 1.71561 113.236 1.75889 113.301 1.75743ZM201.216 6.15574L201.28 6.111C201.215 6.11246 201.214 6.06918 201.149 6.07063L201.085 6.11536C201.15 6.11391 201.215 6.11246 201.216 6.15574ZM204.777 2.612C204.842 2.61055 204.841 2.56727 204.906 2.56581L204.84 2.52399C204.775 2.52544 204.775 2.52544 204.711 2.57018C204.711 2.57018 204.776 2.56872 204.777 2.612ZM114.085 1.95639L114.021 2.00112C114.022 2.0444 114.022 2.0444 114.088 2.08622L114.152 2.04149C114.152 2.04149 114.151 1.99821 114.085 1.95639ZM70.5737 6.61045C70.5747 6.65373 70.6397 6.65227 70.6406 6.69555L70.7046 6.65082C70.7037 6.60754 70.7037 6.60754 70.6377 6.56572L70.5737 6.61045ZM70.4147 5.31498L70.3507 5.35971C70.3517 5.40299 70.3517 5.40299 70.4176 5.44482L70.4817 5.40008C70.4807 5.3568 70.4157 5.35826 70.4147 5.31498ZM214.305 4.30407L214.369 4.25934C214.304 4.26079 214.303 4.21751 214.238 4.21896L214.174 4.2637C214.239 4.26224 214.305 4.30407 214.305 4.30407ZM70.3032 6.14019C70.2382 6.14164 70.2392 6.18492 70.1742 6.18638L70.2402 6.2282C70.3051 6.22675 70.3051 6.22675 70.3691 6.18202C70.3691 6.18202 70.3691 6.18202 70.3032 6.14019ZM87.9136 5.9194C87.8486 5.92085 87.8496 5.96413 87.7846 5.96558L87.8506 6.00741C87.9155 6.00596 87.9155 6.00596 87.9795 5.96122C87.9795 5.96122 87.9795 5.96122 87.9136 5.9194ZM69.8921 5.19677L69.8262 5.15494C69.8271 5.19822 69.7622 5.19968 69.7631 5.24296L69.8291 5.28478C69.8281 5.2415 69.8281 5.2415 69.8921 5.19677ZM68.4947 6.65696L68.5607 6.69879C68.6256 6.69733 68.6256 6.69733 68.6896 6.6526L68.6237 6.61078C68.5597 6.65551 68.4947 6.65696 68.4947 6.65696ZM93.7724 6.30793L93.8383 6.34975C93.8374 6.30647 93.9023 6.30502 93.9014 6.26174L93.8354 6.21992C93.8354 6.21992 93.8364 6.2632 93.7724 6.30793ZM114.998 2.06587L115.064 2.1077C115.129 2.10625 115.129 2.10625 115.193 2.06151L115.127 2.01969C115.128 2.06297 115.063 2.06442 114.998 2.06587ZM86.4367 6.73185L86.3708 6.69003C86.3718 6.73331 86.3068 6.73476 86.3078 6.77804L86.3737 6.81987C86.3727 6.77659 86.3718 6.73331 86.4367 6.73185ZM115.614 3.43773C115.549 3.43918 115.55 3.48246 115.485 3.48391L115.551 3.52574C115.616 3.52429 115.616 3.52429 115.68 3.47955C115.615 3.48101 115.615 3.48101 115.614 3.43773ZM67.5009 2.91202C67.5 2.86874 67.435 2.87019 67.434 2.82692L67.37 2.87165C67.371 2.91493 67.371 2.91493 67.4369 2.95675L67.5009 2.91202ZM66.9171 5.86954C66.9181 5.91282 66.983 5.91137 66.984 5.95465L67.048 5.90991C67.047 5.86663 67.047 5.86663 66.9811 5.82481C66.9821 5.86809 66.9821 5.86809 66.9171 5.86954ZM119.585 6.63973C119.65 6.63828 119.714 6.59355 119.778 6.54881C119.712 6.50699 119.645 6.42188 119.579 6.38006C119.515 6.38151 119.451 6.42624 119.257 6.47389C119.388 6.55754 119.455 6.64264 119.585 6.63973ZM117.446 6.9041C117.511 6.90264 117.577 6.94447 117.577 6.94447C117.642 6.94302 117.706 6.89828 117.77 6.85355C117.705 6.855 117.639 6.81318 117.508 6.77281C117.574 6.81463 117.51 6.85936 117.446 6.9041ZM124.465 6.83367C124.466 6.87695 124.468 6.96351 124.534 7.00534C124.599 7.00388 124.663 6.95915 124.663 6.95915C124.662 6.91587 124.66 6.82931 124.658 6.74275C124.594 6.78749 124.465 6.83367 124.465 6.83367ZM135.9 6.62113C135.965 6.61967 136.03 6.61822 136.095 6.61677C136.029 6.57494 136.027 6.48838 135.962 6.48984C135.897 6.49129 135.767 6.4942 135.638 6.54038C135.769 6.58076 135.835 6.62258 135.9 6.62113ZM54.797 7.43973C54.862 7.43828 54.9919 7.43537 55.0559 7.39064C55.0549 7.34736 54.989 7.30553 54.989 7.30553C54.924 7.30699 54.7941 7.30989 54.6641 7.3128C54.796 7.39645 54.797 7.43973 54.797 7.43973ZM56.4852 7.35866C56.5502 7.35721 56.6801 7.3543 56.7441 7.30957C56.7431 7.26629 56.6772 7.22446 56.6772 7.22446C56.6122 7.22592 56.4823 7.22882 56.3524 7.23173C56.4193 7.31683 56.4852 7.35866 56.4852 7.35866ZM36.5388 7.76162C36.5379 7.71834 36.6028 7.71689 36.6019 7.67361L36.5359 7.63178C36.5369 7.67506 36.4719 7.67651 36.4729 7.71979C36.5379 7.71834 36.5388 7.76162 36.5388 7.76162ZM53.9534 7.50191C54.0183 7.50045 54.0183 7.50045 54.0823 7.45572L54.0164 7.41389C53.9514 7.41535 53.9514 7.41535 53.8874 7.46008C53.8874 7.46008 53.8884 7.50336 53.9534 7.50191ZM54.3422 7.44991C54.3432 7.49319 54.3432 7.49318 54.4091 7.53501L54.4731 7.49028C54.4721 7.447 54.4721 7.447 54.4062 7.40517C54.3422 7.44991 54.3422 7.44991 54.3422 7.44991ZM58.2384 7.27613L58.3043 7.31796C58.3693 7.31651 58.3693 7.31651 58.4333 7.27177L58.3674 7.22995C58.3674 7.22995 58.3024 7.2314 58.2384 7.27613ZM85.0947 7.7578L85.1606 7.79963C85.2256 7.79817 85.2256 7.79817 85.2896 7.75344L85.2236 7.71161C85.1596 7.75635 85.0947 7.7578 85.0947 7.7578ZM122.457 7.18169C122.522 7.18023 122.522 7.18023 122.586 7.1355L122.521 7.09367C122.456 7.09513 122.456 7.09513 122.392 7.13986C122.392 7.13986 122.393 7.18314 122.457 7.18169ZM81.1878 7.4555L81.2538 7.49733C81.3187 7.49587 81.3187 7.49587 81.3827 7.45114L81.3168 7.40931C81.2518 7.41077 81.2518 7.41077 81.1878 7.4555ZM127.99 1.68861C128.055 1.68715 128.054 1.64387 128.119 1.64242C128.053 1.60059 128.053 1.60059 127.987 1.55877L127.923 1.6035C127.924 1.64678 127.989 1.64533 127.99 1.68861ZM129.031 1.75191C129.096 1.75045 129.095 1.70718 129.16 1.70572C129.094 1.6639 129.094 1.6639 129.028 1.62207L128.964 1.6668C128.965 1.71008 129.03 1.70863 129.031 1.75191ZM138.566 6.64809C138.567 6.69137 138.568 6.73465 138.633 6.73319C138.633 6.73319 138.698 6.73174 138.763 6.73029C138.762 6.68701 138.697 6.68846 138.696 6.64518C138.631 6.64664 138.631 6.64664 138.566 6.64809ZM91.9707 7.12765L92.0366 7.16948C92.1016 7.16803 92.1016 7.16802 92.1656 7.12329L92.0997 7.08147C92.1006 7.12475 92.0357 7.1262 91.9707 7.12765ZM213.779 1.15486C213.844 1.15341 213.908 1.10867 213.973 1.10722C213.907 1.0654 213.841 1.02357 213.841 1.02357C213.841 1.02357 213.842 1.06685 213.779 1.15486ZM68.038 6.58058C68.0332 6.36418 67.7752 6.45655 67.6443 6.41618C67.6453 6.45946 67.6463 6.50274 67.6472 6.54602C67.7781 6.58639 67.9081 6.58349 68.038 6.58058Z" fill="#FDB706"/>
</svg>
